<svg id="Group_2659" data-name="Group 2659" xmlns="http://www.w3.org/2000/svg" xmlns:xlink="http://www.w3.org/1999/xlink" width="36.192" height="36.192" viewBox="0 0 36.192 36.192">
  <defs>
    <linearGradient id="linear-gradient" x1="-5.793" y1="6.189" x2="-4.888" y2="7.029" gradientUnits="objectBoundingBox">
      <stop offset="0" stop-color="#e00e48"/>
      <stop offset="0.159" stop-color="#e86514"/>
      <stop offset="0.322" stop-color="#fbda1b"/>
      <stop offset="0.506" stop-color="#47af6d"/>
      <stop offset="0.732" stop-color="#38b0e5"/>
      <stop offset="1" stop-color="#81549a"/>
    </linearGradient>
  </defs>
  <g id="instagram_2_" data-name="instagram (2)" transform="translate(0 0)">
    <g id="Group_2654" data-name="Group 2654" transform="translate(27.738 6.697)">
      <g id="Group_2653" data-name="Group 2653">
        <path id="Path_6929" data-name="Path 6929" d="M393.28,94.739a.879.879,0,1,0,.879.879A.88.88,0,0,0,393.28,94.739Z" transform="translate(-392.401 -94.739)" fill="url(#linear-gradient)"/>
      </g>
    </g>
    <g id="Group_2656" data-name="Group 2656" transform="translate(10.306 10.306)">
      <g id="Group_2655" data-name="Group 2655">
        <path id="Path_6930" data-name="Path 6930" d="M153.593,145.8a7.789,7.789,0,1,0,7.79,7.79A7.8,7.8,0,0,0,153.593,145.8Z" transform="translate(-145.804 -145.804)" fill="url(#linear-gradient)"/>
      </g>
    </g>
    <g id="Group_2658" data-name="Group 2658">
      <g id="Group_2657" data-name="Group 2657">
        <path id="Path_6931" data-name="Path 6931" d="M26.27,0H9.921A9.933,9.933,0,0,0,0,9.922V26.27a9.933,9.933,0,0,0,9.921,9.921H26.27a9.933,9.933,0,0,0,9.921-9.921V9.922A9.933,9.933,0,0,0,26.27,0ZM18.1,28.023A9.927,9.927,0,1,1,28.023,18.1,9.938,9.938,0,0,1,18.1,28.023Zm10.52-17.431a3.016,3.016,0,1,1,3.016-3.016A3.019,3.019,0,0,1,28.616,10.591Z" fill="url(#linear-gradient)"/>
      </g>
    </g>
  </g>
</svg>
