<svg id="marker" xmlns="http://www.w3.org/2000/svg" width="25.897" height="30.909" viewBox="0 0 25.897 30.909">
  <path id="Path_1" data-name="Path 1" d="M13.151,6A5.151,5.151,0,1,0,18.3,11.151,5.151,5.151,0,0,0,13.151,6Zm0,7.727a2.576,2.576,0,1,1,2.576-2.576A2.576,2.576,0,0,1,13.151,13.727Z" transform="translate(-0.203 1.729)"/>
  <path id="Path_2" data-name="Path 2" d="M14.893,30.907a6.788,6.788,0,0,1-5.552-2.833c-4.908-6.77-7.4-11.859-7.4-15.127a12.948,12.948,0,0,1,25.9,0c0,3.268-2.489,8.358-7.4,15.127a6.788,6.788,0,0,1-5.552,2.833Zm0-28.1a10.151,10.151,0,0,0-10.14,10.14c0,2.588,2.438,7.375,6.863,13.478a4.05,4.05,0,0,0,6.555,0c4.425-6.1,6.863-10.889,6.863-13.478a10.151,10.151,0,0,0-10.14-10.14Z" transform="translate(-1.945 0.002)"/>
</svg>
