<svg xmlns="http://www.w3.org/2000/svg" width="209" height="78.411" viewBox="0 0 209 78.411">
  <g id="Group_6289" data-name="Group 6289" transform="translate(-10819 -3068)">
    <path id="Path_14" data-name="Path 14" d="M1316.421-389.5c1.15-2.6,2.167-4.923,3.206-7.235a23.675,23.675,0,0,1,1.227-2.473,3.767,3.767,0,0,1,4.477-1.851c1.582.337,2.549,1.5,2.709,3.451.1,1.222.052,2.458.053,3.688,0,3.427.032,6.853-.01,10.279-.029,2.39-1.639,3.591-3.851,2.963a2.6,2.6,0,0,1-1.937-2.793c-.036-2.151-.009-4.3-.227-6.536-.653,1.538-1.288,3.084-1.964,4.613a31.6,31.6,0,0,1-1.69,3.56c-1.079,1.795-2.871,1.779-3.986-.007a47.994,47.994,0,0,1-2.764-6.1c-.267-.6-.519-1.207-.782-1.82-.5.122-.279.5-.282.743-.023,1.8.032,3.6-.027,5.4-.067,2.045-1.161,3.141-2.976,3.111s-2.776-1.151-2.779-3.254q-.012-6.589,0-13.178c.006-2.277.825-3.648,2.394-4.086a3.92,3.92,0,0,1,4.933,2.185c1.376,2.689,2.53,5.492,3.78,8.246Z" transform="translate(9699.895 3474.383)" fill="#33afe5"/>
    <path id="Path_15" data-name="Path 15" d="M984.945-249.483c0-2.482-.009-4.656,0-6.829s1.14-3.4,3.131-3.419a2.989,2.989,0,0,1,3.141,3.3c.042,4.7.032,9.4,0,14.094a2.946,2.946,0,0,1-1.857,3.058,3.358,3.358,0,0,1-3.862-.886,89.345,89.345,0,0,1-5.461-7.09c-.317-.413-.62-.836-1.17-1.578,0,2.428.025,4.5-.006,6.57-.036,2.422-1.727,3.686-4.07,3.086a2.692,2.692,0,0,1-2.191-2.764q-.077-7.376,0-14.752a2.764,2.764,0,0,1,1.965-2.829,3,3,0,0,1,3.552,1.008c1.9,2.468,3.75,4.979,5.622,7.47C984.077-250.606,984.417-250.171,984.945-249.483Z" transform="translate(9953.458 3366.394)" fill="#33afe5"/>
    <path id="Path_16" data-name="Path 16" d="M1289.629-260.071a10.024,10.024,0,0,1,6.071,1.359,2.656,2.656,0,0,1,.958,3.857c-.709,1.253-1.826,1.24-2.984,1.032a13.761,13.761,0,0,1-1.872-.625,5,5,0,0,0-1.925-.388c-.623.041-1.3.032-1.426.845-.117.753.509.957,1.034,1.161,1.714.665,3.507,1.091,5.177,1.913a5.372,5.372,0,0,1,3.207,5.164c0,2.488-.9,4.642-3.32,5.678a12.75,12.75,0,0,1-11.434-.515,4.119,4.119,0,0,1-1.1-.925,2.707,2.707,0,0,1-.4-3.186,2.306,2.306,0,0,1,2.792-1.166,12.43,12.43,0,0,1,2.223.8,6.4,6.4,0,0,0,3.212.544,1.223,1.223,0,0,0,1.172-.906c.163-.669-.364-.962-.854-1.146-1.314-.491-2.667-.88-3.974-1.387-3.573-1.387-5.141-4.129-4.353-7.523.587-2.526,2.9-4.318,5.953-4.574C1288.394-260.115,1289.013-260.071,1289.629-260.071Z" transform="translate(9717.862 3366.666)" fill="#33afe5"/>
    <path id="Path_17" data-name="Path 17" d="M778.709-386.775q0,.725,0,1.45c0,2.766-.913,3.938-3.622,4.451a14.956,14.956,0,0,1-7.185-.269c-5.136-1.553-7.479-5.75-7.018-10.857.569-6.3,4.545-9.662,10.943-9.649,1.771,0,3.5.036,5.046,1.1A2.975,2.975,0,0,1,778.091-397c-.422,1.179-1.442,1.7-3.021,1.47a12.324,12.324,0,0,0-4.039-.31c-2.7.479-4.126,2.718-3.66,5.877a4.544,4.544,0,0,0,4.981,3.9c.6-.061.87-.277.842-.9-.031-.7-.034-1.407,0-2.108a2.594,2.594,0,0,1,2.933-2.794c1.643.045,2.542,1.029,2.577,2.84C778.721-388.269,778.709-387.522,778.709-386.775Z" transform="translate(10115.053 3474.702)" fill="#33afe5"/>
    <path id="Path_18" data-name="Path 18" d="M902.03-249.508c0-2.329-.015-4.659,0-6.988.019-2.175,1.016-3.281,3.2-3.345,2.728-.079,5.461-.06,8.19-.006a2.365,2.365,0,0,1,2.612,2.506c-.015,1.483-1,2.384-2.7,2.419-1.32.028-2.643.042-3.963-.007-.761-.028-1.092.142-1.091,1,0,1.911-.048,1.91,1.884,1.912.881,0,1.763-.031,2.642.014a2.439,2.439,0,0,1,2.427,2.579A2.378,2.378,0,0,1,912.811-247c-1.188.04-2.38.063-3.566.009-1.346-.061-.881.91-.916,1.546s-.284,1.469.927,1.407c1.361-.07,2.73-.037,4.094-.009,1.7.035,2.657.918,2.691,2.431.034,1.5-.932,2.444-2.632,2.467q-3.962.053-7.926,0c-2.409-.034-3.439-1.1-3.452-3.5C902.02-244.937,902.029-247.223,902.03-249.508Z" transform="translate(10007.293 3366.518)" fill="#33afe5"/>
    <path id="Path_19" data-name="Path 19" d="M1067.9-259.819c2.114,0,4.228-.047,6.34.012a2.885,2.885,0,0,1,2.979,3.7,2.607,2.607,0,0,1-2.364,2.15,6.9,6.9,0,0,1-.787.067c-2.923.089-2.923.088-2.931,2.98-.007,2.813.04,5.627-.039,8.438-.073,2.6-1.88,3.9-4.238,3.181a2.715,2.715,0,0,1-2.01-2.9c-.029-3.472-.062-6.945,0-10.415.02-1.076-.34-1.389-1.352-1.3a10.952,10.952,0,0,1-2.24-.04,2.756,2.756,0,0,1-2.676-3,2.8,2.8,0,0,1,2.98-2.864C1063.672-259.864,1065.787-259.818,1067.9-259.819Z" transform="translate(9887.814 3366.474)" fill="#33afe5"/>
    <path id="Path_20" data-name="Path 20" d="M927.11-393.51c1.057-2.07,2.054-4.014,3.045-5.961a2.773,2.773,0,0,1,2.884-1.666c2.333.2,3.379,2.192,2.23,4.454-1.212,2.385-2.521,4.726-3.9,7.022a6.073,6.073,0,0,0-.987,3.85,16.232,16.232,0,0,1,.008,1.976c-.05,2.137-1.2,3.347-3.215,3.386-1.98.037-3.512-1.22-3.316-3.255.32-3.326-.881-6.045-2.6-8.713a38.619,38.619,0,0,1-2.516-4.618,2.706,2.706,0,0,1,.375-3.2,3.1,3.1,0,0,1,3.292-.741,2.931,2.931,0,0,1,1.724,1.71C925.11-397.4,926.069-395.528,927.11-393.51Z" transform="translate(9994.798 3474.322)" fill="#33afe5"/>
    <path id="Path_21" data-name="Path 21" d="M1220.094-249.463c0-2.326-.062-4.654.018-6.977a3.08,3.08,0,0,1,4.139-3.069,2.817,2.817,0,0,1,2.165,3.057c.027,3.423.051,6.847-.01,10.269-.019,1.034.272,1.385,1.319,1.32a24.132,24.132,0,0,1,3.279.1,2.608,2.608,0,0,1,2.464,2.613,2.7,2.7,0,0,1-1.985,3.015,19.06,19.06,0,0,1-4.333.169c-1.142.037-2.286.021-3.429,0-2.465-.035-3.544-1.043-3.613-3.522C1220.043-244.81,1220.093-247.137,1220.094-249.463Z" transform="translate(9764.566 3366.337)" fill="#33afe5"/>
    <path id="Path_22" data-name="Path 22" d="M1324.208-122.649c0-.483-.036-.97.007-1.449.1-1.095.631-1.463,1.567-.964a.93.93,0,0,0,1.042-.043c.933-.469,1.731.155,2.584.28.723.106,1.615-.749,2.557-.376a1.849,1.849,0,0,1,1.123,1.664c.08.828.057,1.667.06,2.5a1.072,1.072,0,0,1-1.08,1.23,1.19,1.19,0,0,1-1.251-1.112,12.6,12.6,0,0,1-.044-1.577c-.013-.3.008-.691-.434-.662-.411.027-.393.4-.4.71-.008.483.025.969-.02,1.448-.071.759-.494,1.258-1.283,1.2a1.106,1.106,0,0,1-1.09-1.242c.008-.439.01-.879-.01-1.317-.016-.332.067-.8-.448-.785-.473.012-.449.477-.483.806-.045.435-.019.877-.035,1.316-.027.71-.362,1.192-1.1,1.22a1.154,1.154,0,0,1-1.221-1.135,12.641,12.641,0,0,1-.016-1.709Z" transform="translate(9685.103 3263.794)" fill="#33afe5"/>
    <path id="Path_23" data-name="Path 23" d="M524.272-128.976c-.515-.674-1.235-.646-1.8-.9a2.272,2.272,0,0,1-1.609-2.676,2.249,2.249,0,0,1,2.415-1.8,4.5,4.5,0,0,1,2.57.394,1.079,1.079,0,0,1,.531,1.455c-.256.594-.785.625-1.347.449-.518-.162-1.022-.521-1.69-.144.431.749,1.2.732,1.8.952a2.182,2.182,0,0,1,1.6,2.534,2.171,2.171,0,0,1-2.112,2,4.645,4.645,0,0,1-3.088-.389c-.616-.355-1.122-.791-.762-1.579.346-.759.967-.6,1.578-.359A2,2,0,0,0,524.272-128.976Z" transform="translate(10298.351 3270.721)" fill="#33afe5"/>
    <path id="Path_24" data-name="Path 24" d="M935.535-122.561c.15-.622.289-1.248.453-1.866a1.045,1.045,0,0,1,1.406-.817.947.947,0,0,1,.689,1.341,33.417,33.417,0,0,1-1.987,5.135,2.227,2.227,0,0,1-2.577,1.116.962.962,0,0,1-.833-.9.752.752,0,0,1,.7-.935c1.044-.11.769-.688.522-1.3-.391-.975-.748-1.964-1.137-2.94a1.024,1.024,0,0,1,.612-1.5c.775-.288,1.266.126,1.474.874.164.587.291,1.185.434,1.778Z" transform="translate(9983.921 3263.81)" fill="#33afe5"/>
    <path id="Path_25" data-name="Path 25" d="M640.242-122.848c0-.481-.038-.966.008-1.443.1-1.077.664-1.472,1.57-.958.521.3.778.055,1.166-.091a2.022,2.022,0,0,1,2.969,1.865c.058.74.023,1.487.028,2.23a1.082,1.082,0,0,1-1.052,1.251,1.148,1.148,0,0,1-1.308-1.164c-.057-.564-.03-1.136-.049-1.7-.008-.225-.062-.438-.338-.476-.349-.048-.472.187-.5.462-.058.565-.083,1.133-.125,1.7-.053.7-.4,1.176-1.133,1.185a1.155,1.155,0,0,1-1.2-1.155,14.252,14.252,0,0,1-.014-1.7Z" transform="translate(10207.092 3263.981)" fill="#33afe5"/>
    <path id="Path_26" data-name="Path 26" d="M837.573-122.346c0,.482.029.966-.005,1.446-.076,1.055-.621,1.424-1.565.936a1.008,1.008,0,0,0-1.046.059,2.022,2.022,0,0,1-3.057-1.564,8.268,8.268,0,0,1-.117-2.486c.05-.727.413-1.269,1.239-1.248s1.146.524,1.13,1.3c-.008.394-.006.79.015,1.183s-.05.895.527.866c.553-.028.46-.545.484-.92.025-.393.014-.789.017-1.183.005-.791.387-1.256,1.194-1.251s1.161.518,1.18,1.281C837.583-123.4,837.572-122.872,837.573-122.346Z" transform="translate(10060.93 3263.726)" fill="#33afe5"/>
    <path id="Path_27" data-name="Path 27" d="M995.087-122.781c0-.569-.044-1.142.013-1.706.054-.539.486-1.061.951-.829.88.44,1.611.044,2.419-.058a1.852,1.852,0,0,1,2.275,1.789,21.564,21.564,0,0,1,.051,2.5,1.065,1.065,0,0,1-1.1,1.207,1.135,1.135,0,0,1-1.255-1.087c-.071-.562-.024-1.138-.041-1.707-.008-.266-.029-.545-.4-.563-.342-.017-.471.233-.5.5-.055.521-.069,1.047-.081,1.572-.016.7-.3,1.221-1.037,1.284-.806.069-1.208-.468-1.3-1.187a13.163,13.163,0,0,1-.015-1.706Z" transform="translate(9936.3 3263.873)" fill="#33afe5"/>
    <path id="Path_28" data-name="Path 28" d="M1101.055-122.828c0-.482-.039-.967.009-1.444.108-1.066.659-1.433,1.59-.932a1.01,1.01,0,0,0,1.05-.045c1.721-.683,2.96.112,3.076,1.968.041.655.01,1.313.023,1.97.016.759-.266,1.32-1.084,1.356-.869.038-1.251-.514-1.3-1.323-.024-.393.006-.789-.022-1.181-.024-.317.147-.8-.37-.833-.566-.036-.528.482-.573.852a8.219,8.219,0,0,0-.024,1.05c.005.794-.254,1.437-1.151,1.431-.87-.005-1.174-.652-1.219-1.424C1101.03-121.863,1101.053-122.346,1101.055-122.828Z" transform="translate(9855.409 3263.944)" fill="#33afe5"/>
    <g id="Group_9" data-name="Group 9" transform="translate(10819.152 3068)">
      <path id="Path_29" data-name="Path 29" d="M550.258-359.568c-4.143-1.282-5.7-4.622-4.059-8.744.176-.444.4-.868.609-1.3a1.941,1.941,0,0,1,.963-.392,44.283,44.283,0,0,0,8.71-2.557c.532-.212,1.113-.246,1.647-.452,2.408-.083,4.83.153,7.21-.5a5,5,0,0,0,3.621-6.612c.081-.681.628-1.039,1.059-1.457a45.861,45.861,0,0,0,13.1-23.622,46.887,46.887,0,0,0,1.092-9.662c.005-.641-.168-1.328.316-1.9,2.253.961,2.6,2.962,2.585,5.027-.064,8.017-.234,16.033.02,24.049a3.1,3.1,0,0,1-.035.391c-.752,2.5-2.417,4.478-3.909,6.52a55.727,55.727,0,0,1-20.348,17.2A50.818,50.818,0,0,1,552.2-359.7,3.326,3.326,0,0,1,550.258-359.568Z" transform="translate(-539.811 418.237)" fill="#38b0e5"/>
      <path id="Path_30" data-name="Path 30" d="M593.439-419.022a47.11,47.11,0,0,1-9.982,30.711,40.4,40.4,0,0,1-5.581,5.926c-1.447.266-2.572,1.258-3.938,1.728-4.942,1.7-9.833,2.166-14.647-.4a7.838,7.838,0,0,1-2.049-1.4c.017-.483.427-.525.744-.6,6.369-1.53,11.555-5.031,16.1-9.6a2.827,2.827,0,0,1,1.1-.413,6.441,6.441,0,0,0,5.029-7.855,2.856,2.856,0,0,1-.086-1.175,37.979,37.979,0,0,0,2.779-10.109,48.3,48.3,0,0,0,.133-5.12,7.61,7.61,0,0,1,.123-1.829C586.6-419.773,590.03-420.087,593.439-419.022Z" transform="translate(-548.728 420.496)" fill="#47af6d"/>
      <path id="Path_31" data-name="Path 31" d="M522.646-394.966a19.686,19.686,0,0,1-.969-11.269c1.116-.2,2.129.36,3.227.42,5.266.287,9.8-4.341,10.631-8.723a10.413,10.413,0,0,0-.571-6.316,1.035,1.035,0,0,1-.1-1,17.886,17.886,0,0,1,10.755-.539,2.752,2.752,0,0,1,.657,1.934,23.341,23.341,0,0,1-1.594,11.671,1.548,1.548,0,0,1-.835.793,6.671,6.671,0,0,0-3.959,6.043,1.373,1.373,0,0,1-.148.5,20.994,20.994,0,0,1-11.694,6.553,15.705,15.705,0,0,1-4.049.306A1.77,1.77,0,0,1,522.646-394.966Z" transform="translate(-521.291 422.986)" fill="#e86514"/>
      <path id="Path_32" data-name="Path 32" d="M565.4-264.607a54.052,54.052,0,0,0,28.18-16.011,55.637,55.637,0,0,0,8.07-10.848c.172-.3.389-.58.584-.869.171,4.085.433,8.2-.527,12.207a19.388,19.388,0,0,1-13.179,14.6c-7.08,2.408-14.425,2.481-21.787,1.4A2.566,2.566,0,0,1,565.4-264.607Z" transform="translate(-554.956 323.276)" fill="#81549a"/>
      <path id="Path_33" data-name="Path 33" d="M527.011-325.82a21.118,21.118,0,0,0,16.845-6.563c.519.2.434.709.551,1.1a6.462,6.462,0,0,0,5.209,4.922,2.407,2.407,0,0,1,1.435.558,31.7,31.7,0,0,1-16.146,9.746c-.25.065-.49.165-.734.249A19.947,19.947,0,0,1,527.011-325.82Z" transform="translate(-525.656 353.84)" fill="#fbda1b"/>
      <path id="Path_34" data-name="Path 34" d="M536.105-418.213c3.137,5.56.315,12.854-5.436,15.481a8.925,8.925,0,0,1-7.748.139c1.254-6.727,4.637-11.907,10.948-14.934A5.968,5.968,0,0,1,536.105-418.213Z" transform="translate(-522.535 419.343)" fill="#e00e48"/>
      <path id="Path_35" data-name="Path 35" d="M618.506-406.681c.456-1.628.993-3.238,1.349-4.888a23.425,23.425,0,0,0-.045-8.92,11.775,11.775,0,0,1,6.388,3.414,5.545,5.545,0,0,1,3.725-2.68,15.9,15.9,0,0,1,.225,5.436,30.416,30.416,0,0,1-3.056,11.811c-.512-.073-.676-.512-.905-.872a6.326,6.326,0,0,0-6.556-3.114A1.325,1.325,0,0,1,618.506-406.681Z" transform="translate(-595.483 421.08)" fill="#fbda1b"/>
      <path id="Path_36" data-name="Path 36" d="M562.155-234.879a32.045,32.045,0,0,1-11.32,3.4c.132-.321.245-.652.4-.962,1.671-3.359,2.394-3.7,6.1-3.064C558.928-235.232,560.546-235.084,562.155-234.879Z" transform="translate(-543.838 280.103)" fill="#47af6d"/>
    </g>
    <path id="Path_37" data-name="Path 37" d="M706.923-135.875a1.29,1.29,0,0,1,1.312.237.878.878,0,0,1,.358,1.041.789.789,0,0,1-.781.59c-.326,0-.775-.253-.858.266-.069.436.434.313.67.455.766.46.836,1.2.154,1.553-.8.422-.69.986-.705,1.613a9.767,9.767,0,0,1-.025,1.049,1.144,1.144,0,0,1-1.213,1.132,1.108,1.108,0,0,1-1.154-1.174c-.033-1.043.276-2.192-.875-2.916-.1-.063-.163-.422-.1-.477.944-.81.81-2.23,1.726-3.03A1.472,1.472,0,0,1,706.923-135.875Z" transform="translate(10158.665 3271.938)" fill="#33afe5"/>
    <path id="Path_38" data-name="Path 38" d="M1129.749-123.416a1.832,1.832,0,0,1-1.991-1.948,3.2,3.2,0,0,0-.615-2c-1.02-1.311.827-1.61,1.291-2.4.308-.527,1.191-.45,1.588.335a1.214,1.214,0,0,0,.493.556c1.162.7,1.144,1.061-.016,1.871-.5.346-.541,1.373-.031,1.454.78.123,1.166.446.958,1.2C1131.2-123.54,1130.509-123.375,1129.749-123.416Z" transform="translate(9835.719 3267.465)" fill="#33afe5"/>
    <path id="Path_39" data-name="Path 39" d="M1225.729-123.408a1.825,1.825,0,0,1-2.045-1.883,3.574,3.574,0,0,0-.649-2.117c-.974-1.292.916-1.543,1.348-2.381.243-.471,1.112-.4,1.515.281a1.536,1.536,0,0,0,.574.652c1.064.619,1.051,1.163.014,1.834-.686.444-.646,1.21-.116,1.423.724.291,1.236.5.958,1.329A1.4,1.4,0,0,1,1225.729-123.408Z" transform="translate(9762.516 3267.456)" fill="#33afe5"/>
    <path id="Path_40" data-name="Path 40" d="M549.937-123.3c-1.171.016-1.884-.67-1.99-2.091a3.2,3.2,0,0,0-.562-1.889c-.985-1.347.88-1.572,1.325-2.382.285-.519,1.035-.292,1.606.338.878.971,2.314,1.691.089,2.736-.172.081-.338,1.062.3,1.156.826.121,1.1.487.932,1.213C551.456-123.425,550.806-123.293,549.937-123.3Z" transform="translate(10278.163 3267.348)" fill="#33afe5"/>
    <path id="Path_41" data-name="Path 41" d="M603.377-122.285c.275-.822.487-1.419.672-2.024.228-.746.691-1.141,1.473-.883.75.248.817.882.588,1.511-.359.984-.77,1.952-1.2,2.906a1.585,1.585,0,0,1-1.553,1.019,1.622,1.622,0,0,1-1.531-1.058c-.4-.968-.811-1.936-1.161-2.923a1.026,1.026,0,0,1,.687-1.467c.74-.234,1.164.156,1.379.834C602.926-123.75,603.115-123.129,603.377-122.285Z" transform="translate(10237.357 3263.777)" fill="#33afe5"/>
    <path id="Path_42" data-name="Path 42" d="M1292.052-123.434a1.921,1.921,0,0,1-2.125-2.107,3.1,3.1,0,0,0-.577-1.878c-.968-1.341.852-1.587,1.317-2.373.311-.526,1.205-.444,1.571.362a.988.988,0,0,0,.482.535c1.2.652,1.209,1.191.006,1.828a.741.741,0,0,0-.42.834c.008.288-.076.7.37.7.86,0,1.1.485.927,1.2C1293.411-123.556,1292.757-123.415,1292.052-123.434Z" transform="translate(9711.909 3267.48)" fill="#33afe5"/>
    <path id="Path_43" data-name="Path 43" d="M915.309-123.306c-1.375.015-2.074-.691-2.161-2.23a2.106,2.106,0,0,0-.591-1.748c-.586-.523.125-1.818,1.382-2.472.613-.319,1.3-.35,1.559.558.072.251.132.548.468.526.579-.038.8.295.824.78.031.564-.244.87-.842.944-.467.058-.437.489-.413.833.02.282-.047.664.4.7.674.055,1.085.344.975,1.079C916.809-123.665,916.246-123.315,915.309-123.306Z" transform="translate(9999.415 3267.354)" fill="#33afe5"/>
    <path id="Path_44" data-name="Path 44" d="M888.869-131.36c0,.878-.005,1.755,0,2.633a1.133,1.133,0,0,1-1.184,1.289,1.14,1.14,0,0,1-1.194-1.284c0-1.8-.009-3.6.01-5.4a1.071,1.071,0,0,1,1.245-1.187,1.05,1.05,0,0,1,1.114,1.182C888.88-133.2,888.867-132.282,888.869-131.36Z" transform="translate(10019.146 3271.437)" fill="#33afe5"/>
    <path id="Path_45" data-name="Path 45" d="M1175.457-131.46c0-.877,0-1.755,0-2.632,0-.711.3-1.175,1.075-1.22a1.076,1.076,0,0,1,1.287,1.149c.033,1.842.03,3.684,0,5.526a1.121,1.121,0,0,1-1.157,1.194,1.118,1.118,0,0,1-1.21-1.254C1175.462-129.618,1175.456-130.539,1175.457-131.46Z" transform="translate(9798.617 3271.442)" fill="#33afe5"/>
    <path id="Path_46" data-name="Path 46" d="M1057.21-122.733c0-.352,0-.7,0-1.055a3.939,3.939,0,0,1,.026-.657c.086-.475.55-1.044.818-.837,1.061.816,2.418-.876,3.265.431a.841.841,0,0,1-.619,1.32c-1.05.151-1.116.815-1.092,1.615.01.307.005.616-.007.923a1.057,1.057,0,0,1-1.042,1.135,1.128,1.128,0,0,1-1.3-1.033,13.423,13.423,0,0,1-.018-1.842Z" transform="translate(9888.859 3263.85)" fill="#33afe5"/>
    <path id="Path_47" data-name="Path 47" d="M751.488-122.847c0-.523-.038-1.05.008-1.569.052-.6.464-1.114,1.017-.922a2.813,2.813,0,0,0,2-.026.809.809,0,0,1,1.13.591c.136.581-.059,1.123-.683,1.2-1.041.13-1.119.8-1.092,1.6.011.305.006.611-.005.916a1.064,1.064,0,0,1-1.139,1.16,1.135,1.135,0,0,1-1.223-1.115C751.442-121.621,751.49-122.236,751.488-122.847Z" transform="translate(10122.191 3263.894)" fill="#33afe5"/>
    <path id="Path_48" data-name="Path 48" d="M568.709-122.6c0-.524-.036-1.052.008-1.572.083-.991.6-1.544,1.559-.985.551.32.781-.09,1.162-.161.567-.106,1.2-.207,1.4.544.17.629-.03,1.172-.759,1.256-.821.1-.961.638-.991,1.291-.018.392,0,.786-.014,1.179a1.083,1.083,0,0,1-1.007,1.168,1.159,1.159,0,0,1-1.309-1.024,8.622,8.622,0,0,1-.023-1.7Z" transform="translate(10261.683 3263.866)" fill="#33afe5"/>
    <path id="Path_49" data-name="Path 49" d="M1312.992-122.405c0,.482.006.965,0,1.447-.012.721-.363,1.193-1.1,1.207a1.156,1.156,0,0,1-1.23-1.123,23.018,23.018,0,0,1,.006-3.285,1.072,1.072,0,0,1,1.255-1.06,1.08,1.08,0,0,1,1.073,1.235C1312.993-123.458,1312.992-122.932,1312.992-122.405Z" transform="translate(9695.476 3263.741)" fill="#33afe5"/>
    <path id="Path_50" data-name="Path 50" d="M902.353-122.52c0,.526.007,1.053,0,1.579a1.061,1.061,0,0,1-1.11,1.2,1.164,1.164,0,0,1-1.223-1.133,24.721,24.721,0,0,1-.009-3.156,1.109,1.109,0,0,1,1.283-1.178,1.079,1.079,0,0,1,1.063,1.244Q902.354-123.244,902.353-122.52Z" transform="translate(10008.867 3263.735)" fill="#33afe5"/>
    <path id="Path_51" data-name="Path 51" d="M629.026-122.374c0,.482.011.964,0,1.446a1.065,1.065,0,0,1-1.115,1.19,1.156,1.156,0,0,1-1.215-1.138,23.792,23.792,0,0,1,.012-3.282,1.084,1.084,0,0,1,1.272-1.046,1.034,1.034,0,0,1,1.042,1.121C629.038-123.514,629.025-122.944,629.026-122.374Z" transform="translate(10217.457 3263.728)" fill="#33afe5"/>
    <path id="Path_52" data-name="Path 52" d="M588.249-122.51c0-.568-.026-1.138.007-1.7a1,1,0,0,1,1.014-1.006,1.038,1.038,0,0,1,1.231.915,12.508,12.508,0,0,1,.019,3.527,1.092,1.092,0,0,1-1.289,1.024,1.093,1.093,0,0,1-1-1.182c-.014-.525,0-1.05,0-1.574Z" transform="translate(10246.775 3263.741)" fill="#33afe5"/>
    <path id="Path_53" data-name="Path 53" d="M1393.168-131.739a9.994,9.994,0,0,1-.015,1.444.946.946,0,0,1-.988.869c-.616.027-1.051-.179-1.171-.8a8.979,8.979,0,0,1-.1-2.878,1.094,1.094,0,0,1,1.254-1.069c.769.06,1.04.561,1.072,1.249.017.394,0,.79,0,1.185Z" transform="translate(9634.254 3270.574)" fill="#33afe5"/>
    <path id="Path_54" data-name="Path 54" d="M588.706-135.577a1.156,1.156,0,0,1-1.218-1.3,1.19,1.19,0,0,1,1.4-1.211,1.16,1.16,0,0,1,1.228,1.25C590.111-135.973,589.625-135.585,588.706-135.577Z" transform="translate(10247.341 3273.559)" fill="#33afe5"/>
    <path id="Path_55" data-name="Path 55" d="M1311.86-135.577c-1-.012-1.5-.378-1.52-1.25-.025-.905.543-1.264,1.322-1.27a1.173,1.173,0,0,1,1.306,1.179A1.2,1.2,0,0,1,1311.86-135.577Z" transform="translate(9695.676 3273.564)" fill="#33afe5"/>
    <path id="Path_56" data-name="Path 56" d="M627.6-135.575a1.167,1.167,0,0,1-1.229-1.35,1.137,1.137,0,0,1,1.293-1.167,1.177,1.177,0,0,1,1.332,1.28A1.219,1.219,0,0,1,627.6-135.575Z" transform="translate(10217.665 3273.561)" fill="#33afe5"/>
    <path id="Path_57" data-name="Path 57" d="M901.057-135.57c-.941-.051-1.356-.494-1.343-1.344a1.134,1.134,0,0,1,1.281-1.178,1.182,1.182,0,0,1,1.344,1.27A1.2,1.2,0,0,1,901.057-135.57Z" transform="translate(10009.057 3273.562)" fill="#33afe5"/>
    <path id="Path_58" data-name="Path 58" d="M1392.021-109.512c-.718-.034-1.259-.245-1.283-1.113-.025-.9.449-1.258,1.271-1.264s1.37.443,1.34,1.248A1.146,1.146,0,0,1,1392.021-109.512Z" transform="translate(9634.318 3253.564)" fill="#33afe5"/>
    <path id="Path_59" data-name="Path 59" d="M1224-391.406c-.216-6.544-4.705-10.537-11.576-10.295-6.032.213-10.2,4.778-9.985,10.951.211,6.192,4.672,10.278,10.989,10.067C1220.061-380.9,1224.207-385.109,1224-391.406Zm-11.265,5.074a3.506,3.506,0,0,1-2.708-1.428,6,6,0,0,1-.5-6.13,3.835,3.835,0,0,1,4-2.22c2.481.131,3.94,1.975,3.934,4.972C1217.45-387.881,1215.725-386.132,1212.735-386.332Z" transform="translate(9778.03 3474.75)" fill="#33afe5"/>
    <path id="Path_60" data-name="Path 60" d="M1124.048-396.572c-1.936-3.708-5.287-5.215-9.936-5.165-7.548-.39-12.283,7.214-9.464,14.9,1.475,4.018,5.611,6.35,10.263,6.146,3.627-.159,6.809-1.232,8.776-4.442A11.074,11.074,0,0,0,1124.048-396.572Zm-5.953,8.433a4.062,4.062,0,0,1-4.508,1.722,4.053,4.053,0,0,1-3.066-3.265,11.291,11.291,0,0,1-.114-1.3c.006-3.882,2.449-5.936,5.562-4.975a3.539,3.539,0,0,1,2.21,1.762A6.137,6.137,0,0,1,1118.095-388.139Z" transform="translate(9853.283 3474.78)" fill="#33afe5"/>
    <path id="Path_61" data-name="Path 61" d="M1039.5-386.761c-.645-.8-.68-1.307.14-2.159a7.1,7.1,0,0,0-3.652-12.062,35.053,35.053,0,0,0-7.454-.371c-2.6-.008-3.67,1.063-3.694,3.689-.021,2.239,0,4.478,0,6.717h.009c0,2.371-.047,4.743.014,7.112a2.982,2.982,0,0,0,3.223,3.213c1.9-.045,2.987-1.169,3.086-3.214.023-.482-.045-.974.025-1.447s-.351-1.139.375-1.356a1.353,1.353,0,0,1,1.7.834,40.126,40.126,0,0,0,2.546,4.142,2.987,2.987,0,0,0,4.051.516,2.515,2.515,0,0,0,.865-3.745A12.759,12.759,0,0,0,1039.5-386.761Zm-7.992-4.732c-.384-.173-.324-.473-.327-.763-.01-.917.05-1.839-.019-2.751-.08-1.073.2-1.634,1.264-1.258,2.221.1,2.943.666,2.979,2.247A2.81,2.81,0,0,1,1031.5-391.492Z" transform="translate(9913.577 3474.492)" fill="#33afe5"/>
    <path id="Path_62" data-name="Path 62" d="M834.139-245.269c-.644-.794-.717-1.329.127-2.17,2.31-2.3,2.481-5.191,1.507-8.094-.94-2.8-3.341-3.81-6.071-4.135a51.739,51.739,0,0,0-6.823-.212c-2.282.03-3.345,1.145-3.36,3.465-.014,2.285,0,4.571,0,6.856,0,2.461-.028,4.923.011,7.384a2.881,2.881,0,0,0,2.857,3.018,2.92,2.92,0,0,0,3.348-2.628c.1-.689.005-1.408.091-2.1.056-.449-.373-1.128.461-1.3a1.342,1.342,0,0,1,1.588.81,46.655,46.655,0,0,0,2.457,4.054,3.027,3.027,0,0,0,4.247.592c1.37-.894,1.631-2.2.721-3.78A13.449,13.449,0,0,0,834.139-245.269ZM828.06-250.1c-.173.027-.345.06-.519.077-1.717.168-1.733.152-1.734-1.61v-.786c0-.087-.03-.189,0-.259.348-.695-.811-2.015.79-2.155,2.189-.191,3.318.546,3.475,2.075A2.159,2.159,0,0,1,828.06-250.1Z" transform="translate(10070.268 3366.521)" fill="#33afe5"/>
    <path id="Path_63" data-name="Path 63" d="M1150.254-243.268c-.643-1.954-1.343-3.889-2.028-5.828-.875-2.477-1.722-4.965-2.656-7.42a4.26,4.26,0,0,0-3.146-3.062c-3.055-.619-4.915.5-6.072,3.8-1.361,3.881-2.676,7.779-4.016,11.667a5.925,5.925,0,0,0-.534,2.069,2.665,2.665,0,0,0,2.236,2.894c1.87.422,3.048-.229,3.7-2.216.262-.8.6-1.11,1.459-1.056a36.355,36.355,0,0,0,3.955,0,1.176,1.176,0,0,1,1.392.976c.666,2.1,2.2,2.87,4.158,2.2C1150.278-239.789,1150.9-241.317,1150.254-243.268Zm-8.287-3.9c-.772-.023-1.546-.006-2.456-.006l1.617-5.426c.551,1.8.972,3.238,1.433,4.662C1142.758-247.336,1142.554-247.154,1141.967-247.172Z" transform="translate(9831.934 3366.401)" fill="#33afe5"/>
    <path id="Path_64" data-name="Path 64" d="M861.276-384.17c-1.567-4.835-3.175-9.66-5.064-14.382a3.836,3.836,0,0,0-2.864-2.49c-2.844-.6-4.807.363-5.836,3.175-1.612,4.4-3.1,8.854-4.622,13.289a5.34,5.34,0,0,0-.18.957,2.723,2.723,0,0,0,2,2.951c1.594.437,3.171.083,3.485-1.244.517-2.182,1.941-2.05,3.532-1.957a10.346,10.346,0,0,0,1.716-.005,1.686,1.686,0,0,1,2.157,1.4c.5,1.753,2.133,2.372,3.944,1.782A2.608,2.608,0,0,0,861.276-384.17Zm-8.261-4.473c-.82-.008-1.639,0-2.6,0l1.465-4.944h.29c.441,1.435.878,2.871,1.328,4.3C853.648-388.821,853.483-388.638,853.015-388.643Z" transform="translate(10052.561 3474.369)" fill="#33afe5"/>
    <path id="Path_65" data-name="Path 65" d="M673-124.38c-.01-.521-.445-1.148-.869-.9-.981.564-1.8-.062-2.687-.08a2,2,0,0,0-1.97,1.266,3,3,0,0,0,1.4,4.1h1.888a1.376,1.376,0,0,1-1.9.255h0c-.431.267-1.22-.043-1.289.813a1.049,1.049,0,0,0,.518.99,3.216,3.216,0,0,0,4.773-1.725A19.516,19.516,0,0,0,673-124.38Zm-2.741,2.515c-.447,0-.622-.257-.628-.659s.03-.83.557-.867c.375-.026.52.263.534.6C670.733-122.4,670.793-121.982,670.255-121.865Z" transform="translate(10186.557 3263.849)" fill="#33afe5"/>
    <path id="Path_66" data-name="Path 66" d="M809.634-121.735h-.01c0-.878.027-1.758-.007-2.634-.038-.977-.57-1.407-1.475-.962a.979.979,0,0,1-1.029.019,2.04,2.04,0,0,0-2.545.371,3.265,3.265,0,0,0-.479,3.585,1.9,1.9,0,0,0,2.15,1.366c.784-.126,1.075-.016,1.035.855a1.12,1.12,0,0,0,1.242,1.236c.809-.024,1.131-.556,1.12-1.332C809.625-120.066,809.634-120.9,809.634-121.735Zm-2.863-.256c-.473.009-.546-.337-.56-.7-.015-.415.06-.823.557-.872.536-.052.581.4.666.767C807.4-122.365,807.282-122,806.771-121.991Z" transform="translate(10082.278 3264.02)" fill="#33afe5"/>
    <path id="Path_67" data-name="Path 67" d="M1258.767-122.081a1.328,1.328,0,0,1-.222-.868c-.194-2.336-1.581-3.314-3.849-2.7-.571.154-1.11.425-1.133,1.107-.024.705.581.739,1.278.866-1.565.845-2,1.67-1.576,2.666.383.891,1.5,1.136,2.883.533a.816.816,0,0,1,.926.08,1.3,1.3,0,0,0,1.794-.141A1.076,1.076,0,0,0,1258.767-122.081Zm-3.279.241a.328.328,0,0,1-.025-.311c.259-.246.545-.194.853.014C1256.061-121.706,1255.785-121.677,1255.488-121.84Z" transform="translate(9739.353 3264.203)" fill="#33afe5"/>
    <path id="Path_68" data-name="Path 68" d="M1153.214-122.041c-.34-.368-.2-.829-.26-1.251a2.819,2.819,0,0,0-4.273-2.233c-.388.186-.692.382-.7.84-.013.535.318.77.8.856a1.723,1.723,0,0,1,1.574.3l-1.816.11h0a1.656,1.656,0,0,0-.852,2.407,1.814,1.814,0,0,0,2.538.611,1.33,1.33,0,0,1,1.4.055,1.273,1.273,0,0,0,1.673-.276A.981.981,0,0,0,1153.214-122.041Zm-3.1.246c-.177,0-.382-.029-.388-.245-.008-.3.252-.316.468-.323.166-.005.352.005.4.246C1150.548-121.859,1150.347-121.8,1150.115-121.8Z" transform="translate(9820.001 3264.254)" fill="#33afe5"/>
    <path id="Path_69" data-name="Path 69" d="M726.7-125.336c-1.942-.028-3.1,1-3.105,2.762a2.681,2.681,0,0,0,2.957,2.8,2.751,2.751,0,0,0,3.062-2.711A2.721,2.721,0,0,0,726.7-125.336Zm-.079,3.535c-.565.067-.648-.308-.658-.737s.059-.827.58-.855c.5-.027.649.352.725.744C727.264-122.185,727.107-121.859,726.618-121.8Z" transform="translate(10143.47 3263.826)" fill="#33afe5"/>
    <path id="Path_70" data-name="Path 70" d="M1203.194-122.052a1.4,1.4,0,0,1-.283-.984c-.2-2.3-1.7-3.3-3.915-2.623-1.032.316-1.206.818-.64,1.851l1.642-.077.058.231-1.458.247h0a1.639,1.639,0,0,0-.886,2.4,1.8,1.8,0,0,0,2.543.623,1.272,1.272,0,0,1,1.4.062,1.22,1.22,0,0,0,1.576-.216A.985.985,0,0,0,1203.194-122.052Zm-3.012.283c-.2-.03-.465-.014-.4-.314.023-.107.233-.22.373-.244.185-.033.461-.055.475.226C1200.642-121.843,1200.4-121.795,1200.182-121.769Z" transform="translate(9781.814 3264.231)" fill="#33afe5"/>
    <path id="Path_71" data-name="Path 71" d="M969.927-125.347a2.708,2.708,0,0,0-2.883,2.749,2.765,2.765,0,0,0,3.1,2.814,2.678,2.678,0,0,0,2.929-2.828C973.047-124.359,971.876-125.378,969.927-125.347Zm.774,2.878c-.017.391-.146.681-.5.675-.594-.048-.79-.337-.8-.8s.146-.819.64-.809C970.621-123.389,970.722-122.949,970.7-122.469Z" transform="translate(9957.672 3263.835)" fill="#33afe5"/>
    <path id="Path_72" data-name="Path 72" d="M864.353-121.676c-.319-.336-.217-.737-.248-1.121-.207-2.518-1.865-3.031-4.181-2.46a.955.955,0,0,0-.845.886c-.022.544.3.78.785.874l1.558-.006h0l.351.3c-.321.284-.6.068-.879-.078l-1.271.192h0c-.951.587-1.407,1.391-.8,2.43a1.8,1.8,0,0,0,2.556.557,1.326,1.326,0,0,1,1.409.1,1.237,1.237,0,0,0,1.573-.256A.973.973,0,0,0,864.353-121.676Zm-3.413.146a.352.352,0,0,1-.077-.314.663.663,0,0,1,.923-.033A.578.578,0,0,1,860.94-121.53Z" transform="translate(10040.475 3263.927)" fill="#33afe5"/>
    <path id="Path_73" data-name="Path 73" d="M1077.477-122.243h2.791a1.976,1.976,0,0,0-1.331-3.214,2.985,2.985,0,0,0-3.3,1.359,2.953,2.953,0,0,0,.382,3.317,3.805,3.805,0,0,0,3.811.677,1.016,1.016,0,0,0,.435-1.708C1079.474-122.063,1078.592-121.426,1077.477-122.243Zm1.243-1.276a1.023,1.023,0,0,1-1.064.039C1078.02-123.95,1078.295-123.864,1078.72-123.518Z" transform="translate(9875.054 3263.964)" fill="#33afe5"/>
    <path id="Path_74" data-name="Path 74" d="M1024.069-122.248h2.712a1.964,1.964,0,0,0-1.3-3.216,2.9,2.9,0,0,0-3.29,1.359,2.869,2.869,0,0,0,.376,3.316,3.741,3.741,0,0,0,3.81.67c.821-.4.918-.988.4-1.711C1025.993-122.084,1025.092-121.407,1024.069-122.248Zm1.128-1.347c-.35.359-.639.163-1.027.253C1024.448-123.933,1024.741-123.877,1025.2-123.595Z" transform="translate(9915.856 3263.973)" fill="#33afe5"/>
    <path id="Path_75" data-name="Path 75" d="M781.367-122.292h2.148a1.673,1.673,0,0,0-.273-2.983,3.091,3.091,0,0,0-3.138.11,2.609,2.609,0,0,0-1.184,2.607c.136,1.874,1.629,2.849,3.839,2.527,1.373-.2,1.63-.884.762-2.028A2.175,2.175,0,0,1,781.367-122.292Zm-.021-1.415a.621.621,0,0,1,.431-.2.291.291,0,0,1,.346.29c-.124.232-.352.157-.543.154C781.444-123.465,781.187-123.457,781.346-123.707Z" transform="translate(10101.253 3264.065)" fill="#33afe5"/>
    <path id="Path_76" data-name="Path 76" d="M1369.45-122.034a2.683,2.683,0,0,1-2.434-.226h2.428a1.638,1.638,0,0,0,.069-2.778,3.027,3.027,0,0,0-3.009-.324,2.361,2.361,0,0,0-1.612,2.2,2.623,2.623,0,0,0,1.06,2.666,3.547,3.547,0,0,0,3.41.268C1370.353-120.655,1370.3-121.385,1369.45-122.034Zm-1.509-1.755c.354.4-.1.332-.3.36a2.074,2.074,0,0,1-.463-.057C1367.392-123.911,1367.719-124.038,1367.941-123.789Z" transform="translate(9654.057 3264.036)" fill="#33afe5"/>
  </g>
</svg>
