<svg xmlns="http://www.w3.org/2000/svg" width="165" height="201.781" viewBox="0 0 537.835 201.781">
  <g id="Group_6251" data-name="Group 6251" transform="translate(-164 146)">
    <path id="Path_14" data-name="Path 14" d="M1334.686-371.049c2.96-6.692,5.576-12.668,8.25-18.618a61.02,61.02,0,0,1,3.157-6.363c2.635-4.4,6.355-5.865,11.521-4.762,4.07.869,6.559,3.864,6.971,8.879.258,3.146.133,6.325.137,9.49.012,8.818.081,17.636-.026,26.452-.075,6.152-4.217,9.242-9.911,7.626-3.213-.912-4.918-3.219-4.983-7.187-.092-5.535-.023-11.073-.584-16.821-1.68,3.959-3.316,7.937-5.053,11.87a81.4,81.4,0,0,1-4.35,9.161c-2.778,4.619-7.388,4.577-10.257-.017-3.063-4.9-4.773-10.454-7.112-15.706-.687-1.544-1.335-3.106-2.013-4.685-1.284.314-.717,1.3-.725,1.912-.06,4.634.083,9.273-.07,13.9-.173,5.264-2.988,8.083-7.657,8.005-4.647-.078-7.143-2.962-7.152-8.374q-.03-16.956,0-33.913c.015-5.858,2.124-9.387,6.161-10.514,5.363-1.5,9.917.194,12.694,5.622,3.542,6.921,6.511,14.133,9.727,21.22C1333.736-373.154,1334.058-372.439,1334.686-371.049Z" transform="translate(-662.92 268.489)" fill="#fff"/>
    <path id="Path_15" data-name="Path 15" d="M1004.421-233.359c0-6.387-.022-11.981.006-17.575.029-5.614,2.934-8.761,8.057-8.8,4.856-.035,8.035,3.11,8.083,8.482.108,12.089.082,24.18,0,36.269-.023,3.465-1.194,6.539-4.778,7.868a8.641,8.641,0,0,1-9.939-2.279c-5.286-5.615-9.375-12.159-14.054-18.246-.816-1.062-1.6-2.151-3.01-4.061,0,6.248.063,11.578-.017,16.907-.094,6.234-4.445,9.486-10.473,7.942a6.929,6.929,0,0,1-5.637-7.113q-.2-18.98.009-37.963c.035-3.359,1.545-6.156,5.058-7.279,3.593-1.149,6.81-.428,9.141,2.595,4.9,6.351,9.65,12.812,14.468,19.224C1002.189-236.248,1003.063-235.128,1004.421-233.359Z" transform="translate(-533.155 213.223)" fill="#fff"/>
    <path id="Path_16" data-name="Path 16" d="M1302.782-260.044c5.51-.227,10.878.414,15.624,3.5,3.85,2.5,4.613,6.13,2.466,9.925-1.824,3.225-4.7,3.191-7.68,2.655a35.46,35.46,0,0,1-4.818-1.61,12.858,12.858,0,0,0-4.955-1c-1.6.107-3.346.082-3.669,2.175-.3,1.939,1.311,2.464,2.66,2.987,4.411,1.712,9.025,2.808,13.321,4.922,5.644,2.778,8.242,7.323,8.252,13.29.013,6.4-2.307,11.947-8.544,14.61-9.925,4.239-19.841,3.739-29.425-1.325a10.6,10.6,0,0,1-2.841-2.38,6.967,6.967,0,0,1-1.024-8.2c1.463-2.968,4.222-3.611,7.184-3a31.965,31.965,0,0,1,5.721,2.053,16.463,16.463,0,0,0,8.267,1.4,3.147,3.147,0,0,0,3.017-2.332c.419-1.721-.937-2.477-2.2-2.948-3.381-1.264-6.863-2.265-10.227-3.57-9.2-3.57-13.23-10.624-11.2-19.36,1.51-6.5,7.47-11.112,15.319-11.771C1299.6-260.157,1301.2-260.044,1302.782-260.044Z" transform="translate(-653.725 213.363)" fill="#fff"/>
    <path id="Path_17" data-name="Path 17" d="M806.845-363.372q0,1.865,0,3.731c-.009,7.118-2.35,10.134-9.322,11.454a38.487,38.487,0,0,1-18.49-.692c-13.218-4-19.247-14.8-18.06-27.939,1.464-16.221,11.7-24.864,28.16-24.831,4.556.009,9.008.094,12.986,2.818a7.655,7.655,0,0,1,3.135,9.156c-1.087,3.033-3.709,4.382-7.774,3.782-3.451-.51-6.818-1.432-10.4-.8-6.957,1.233-10.619,6.995-9.417,15.124a11.694,11.694,0,0,0,12.818,10.039c1.548-.157,2.238-.713,2.167-2.3-.08-1.806-.087-3.621.006-5.426.25-4.867,2.858-7.317,7.548-7.189,4.228.116,6.542,2.649,6.631,7.307C806.874-367.217,806.844-365.295,806.845-363.372Z" transform="translate(-450.456 268.652)" fill="#fff"/>
    <path id="Path_18" data-name="Path 18" d="M902.038-233.167c0-5.994-.039-11.989.012-17.984.048-5.6,2.615-8.443,8.244-8.607,7.02-.2,14.052-.155,21.075-.015,4.356.087,6.762,2.577,6.723,6.448-.038,3.816-2.568,6.134-6.943,6.226-3.4.071-6.8.107-10.2-.017-1.959-.072-2.811.366-2.807,2.581.009,4.917-.124,4.916,4.849,4.919,2.266,0,4.537-.081,6.8.035a6.276,6.276,0,0,1,6.246,6.637,6.12,6.12,0,0,1-6.256,6.222c-3.057.1-6.124.161-9.177.023-3.463-.158-2.268,2.343-2.358,3.98-.091,1.659-.731,3.781,2.386,3.621,3.5-.179,7.025-.1,10.537-.023,4.377.09,6.837,2.363,6.926,6.255.088,3.847-2.4,6.291-6.772,6.348q-10.2.135-20.4,0c-6.2-.087-8.849-2.836-8.884-9.007C902.012-221.4,902.037-227.285,902.038-233.167Z" transform="translate(-505.603 213.287)" fill="#fff"/>
    <path id="Path_19" data-name="Path 19" d="M1082.568-259.791c5.439,0,10.881-.121,16.316.031,5.659.159,8.843,4.212,7.665,9.522a6.71,6.71,0,0,1-6.084,5.532,17.734,17.734,0,0,1-2.026.171c-7.522.23-7.522.227-7.543,7.669-.019,7.238.1,14.48-.1,21.713-.188,6.682-4.837,10.038-10.905,8.185-3.381-1.032-5.141-3.432-5.174-7.458-.074-8.934-.161-17.871,0-26.8.05-2.769-.876-3.574-3.479-3.342a28.183,28.183,0,0,1-5.766-.1c-4.51-.531-7.031-3.443-6.887-7.712.148-4.395,2.947-7.238,7.668-7.371C1071.687-259.906,1077.129-259.788,1082.568-259.791Z" transform="translate(-566.749 213.265)" fill="#fff"/>
    <path id="Path_20" data-name="Path 20" d="M940.817-381.489c2.721-5.326,5.286-10.329,7.835-15.341a7.135,7.135,0,0,1,7.421-4.287c6,.5,8.7,5.64,5.739,11.461-3.119,6.138-6.487,12.161-10.024,18.07a15.625,15.625,0,0,0-2.54,9.909,41.789,41.789,0,0,1,.02,5.084c-.128,5.5-3.1,8.614-8.272,8.712-5.094.1-9.038-3.14-8.534-8.376.823-8.559-2.267-15.555-6.688-22.421a99.344,99.344,0,0,1-6.476-11.884c-1.278-2.748-1.391-5.812.965-8.233s5.3-2.817,8.471-1.907c2.287.656,3.433,2.472,4.437,4.4C935.669-391.5,938.138-386.681,940.817-381.489Z" transform="translate(-511.998 268.458)" fill="#fff"/>
    <path id="Path_21" data-name="Path 21" d="M1220.129-233.425c0-5.985-.158-11.976.046-17.954.211-6.17,4.806-9.442,10.653-7.9,3.615.954,5.536,3.528,5.57,7.866.069,8.809.13,17.62-.027,26.426-.047,2.661.7,3.564,3.395,3.4a62.106,62.106,0,0,1,8.438.253c3.675.274,5.938,2.757,6.341,6.724a6.945,6.945,0,0,1-5.109,7.76c-3.667.968-7.432.314-11.151.434-2.938.1-5.884.054-8.825.012-6.344-.091-9.121-2.683-9.3-9.062C1220-221.45,1220.127-227.439,1220.129-233.425Z" transform="translate(-629.823 213.194)" fill="#fff"/>
    <path id="Path_22" data-name="Path 22" d="M1324.23-118.487c0-1.243-.094-2.5.019-3.728.258-2.817,1.623-3.766,4.033-2.48a2.392,2.392,0,0,0,2.681-.11c2.4-1.207,4.454.4,6.651.722,1.859.274,4.155-1.926,6.58-.968a4.757,4.757,0,0,1,2.89,4.282c.206,2.131.147,4.289.153,6.435,0,1.842-.871,3.092-2.779,3.165a3.062,3.062,0,0,1-3.219-2.861,32.386,32.386,0,0,1-.114-4.059c-.035-.762.021-1.779-1.117-1.7-1.056.07-1.01,1.035-1.024,1.826-.021,1.243.063,2.494-.052,3.727-.182,1.952-1.27,3.238-3.3,3.076a2.846,2.846,0,0,1-2.8-3.2c.021-1.129.026-2.262-.025-3.39-.04-.854.173-2.053-1.152-2.02-1.216.03-1.156,1.228-1.244,2.074-.116,1.12-.049,2.258-.09,3.387-.068,1.826-.932,3.068-2.834,3.139s-2.907-1.212-3.142-2.92a32.526,32.526,0,0,1-.041-4.4Z" transform="translate(-670.49 160.716)" fill="#fff"/>
    <path id="Path_23" data-name="Path 23" d="M529.972-120.488c-1.326-1.733-3.179-1.662-4.645-2.319-3.37-1.511-4.678-3.613-4.141-6.887.455-2.78,2.752-4.542,6.215-4.634,2.253-.06,4.543-.233,6.615,1.013a2.775,2.775,0,0,1,1.366,3.744c-.659,1.53-2.021,1.608-3.467,1.155-1.333-.417-2.631-1.342-4.348-.372,1.109,1.928,3.1,1.884,4.628,2.449,3.155,1.165,4.446,3.251,4.1,6.522-.343,3.288-2.557,4.72-5.435,5.137-2.68.389-5.438.446-7.946-1-1.586-.914-2.886-2.036-1.961-4.063.892-1.953,2.488-1.543,4.061-.924C526.487-120.088,527.951-119.394,529.972-120.488Z" transform="translate(-356.649 164.261)" fill="#fff"/>
    <path id="Path_24" data-name="Path 24" d="M940.073-118.229c.386-1.6.744-3.211,1.167-4.8a2.688,2.688,0,0,1,3.619-2.1,2.436,2.436,0,0,1,1.774,3.451c-1.51,4.476-2.878,9.02-5.114,13.214-1.429,2.678-3.817,3.32-6.631,2.872a2.475,2.475,0,0,1-2.144-2.307,1.937,1.937,0,0,1,1.793-2.4c2.686-.282,1.979-1.77,1.343-3.356-1.008-2.51-1.924-5.055-2.926-7.566-.726-1.823-.139-3.21,1.576-3.848,1.994-.741,3.257.324,3.794,2.25.422,1.511.748,3.05,1.117,4.576Z" transform="translate(-517.565 160.724)" fill="#fff"/>
    <path id="Path_25" data-name="Path 25" d="M640.265-118.613c0-1.238-.1-2.486.02-3.713.267-2.771,1.708-3.788,4.04-2.465,1.341.761,2,.143,3-.234,4.083-1.536,7.3.467,7.641,4.8.149,1.9.059,3.825.072,5.739.012,1.837-.812,3.09-2.707,3.22-2.033.141-3.167-1.042-3.367-3-.148-1.45-.076-2.922-.127-4.384-.02-.578-.158-1.127-.869-1.226-.9-.124-1.216.48-1.289,1.189-.15,1.454-.213,2.917-.323,4.376-.136,1.811-1.024,3.027-2.917,3.049s-2.867-1.254-3.075-2.972a36.664,36.664,0,0,1-.036-4.382Z" transform="translate(-403.353 160.812)" fill="#fff"/>
    <path id="Path_26" data-name="Path 26" d="M846.743-117.847c0,1.241.075,2.486-.014,3.721-.2,2.716-1.6,3.665-4.028,2.408-1.152-.6-1.752-.246-2.691.151-3.958,1.675-6.885.13-7.866-4.026a21.284,21.284,0,0,1-.3-6.4c.129-1.87,1.063-3.267,3.187-3.212s2.95,1.349,2.909,3.355c-.021,1.014-.016,2.032.039,3.045.053.975-.128,2.3,1.357,2.228,1.424-.072,1.185-1.4,1.245-2.368.064-1.012.036-2.03.043-3.045.014-2.036,1-3.232,3.073-3.218,2.1.014,2.987,1.333,3.037,3.3C846.769-120.555,846.741-119.2,846.743-117.847Z" transform="translate(-478.154 160.681)" fill="#fff"/>
    <path id="Path_27" data-name="Path 27" d="M995.147-118.663c0-1.464-.113-2.94.032-4.39.139-1.386,1.252-2.73,2.446-2.133,2.263,1.132,4.145.113,6.225-.149,3.342-.421,5.461,1.265,5.855,4.6a55.488,55.488,0,0,1,.131,6.422c0,1.865-.928,3.033-2.827,3.107a2.92,2.92,0,0,1-3.231-2.8c-.183-1.446-.063-2.928-.105-4.393-.02-.685-.075-1.4-1.017-1.45-.88-.044-1.213.6-1.285,1.275-.142,1.341-.178,2.695-.208,4.045-.04,1.806-.784,3.143-2.67,3.3-2.074.178-3.108-1.2-3.351-3.056a33.88,33.88,0,0,1-.038-4.391Z" transform="translate(-541.936 160.757)" fill="#fff"/>
    <path id="Path_28" data-name="Path 28" d="M1101.077-118.638c0-1.24-.1-2.489.024-3.716.278-2.743,1.695-3.688,4.091-2.4,1.167.628,1.767.255,2.7-.116,4.429-1.756,7.618.288,7.916,5.064.1,1.684.025,3.379.061,5.069.041,1.952-.683,3.4-2.79,3.488-2.236.1-3.219-1.322-3.347-3.406-.062-1.01.016-2.031-.057-3.04-.061-.817.379-2.058-.953-2.144-1.457-.094-1.359,1.241-1.476,2.193a21.146,21.146,0,0,0-.061,2.7c.013,2.042-.654,3.7-2.962,3.683-2.24-.014-3.02-1.677-3.137-3.663C1101.015-116.156,1101.073-117.4,1101.077-118.638Z" transform="translate(-583.333 160.793)" fill="#fff"/>
    <g id="Group_9" data-name="Group 9" transform="translate(164.391 -146)">
      <path id="Path_29" data-name="Path 29" d="M557.652-269.578c-10.661-3.3-14.658-11.893-10.445-22.5.453-1.143,1.041-2.233,1.567-3.347a5,5,0,0,1,2.479-1.009,113.952,113.952,0,0,0,22.413-6.579c1.37-.545,2.865-.633,4.239-1.162,6.2-.213,12.429.394,18.553-1.291,7.842-2.158,11.735-9.1,9.319-17.014.208-1.753,1.616-2.675,2.725-3.749a118.014,118.014,0,0,0,33.7-60.787,120.651,120.651,0,0,0,2.811-24.865c.014-1.649-.432-3.418.813-4.88,5.8,2.473,6.694,7.622,6.652,12.936-.165,20.63-.6,41.258.052,61.887a7.976,7.976,0,0,1-.091,1.007c-1.936,6.434-6.221,11.523-10.059,16.779A143.409,143.409,0,0,1,590.017-279.9a130.782,130.782,0,0,1-27.377,10C561-269.5,559.36-268.988,557.652-269.578Z" transform="translate(-530.769 420.556)" fill="#38b0e5"/>
      <path id="Path_30" data-name="Path 30" d="M650.391-417.92c.719,29.349-7.778,55.718-25.687,79.032a103.943,103.943,0,0,1-14.363,15.249c-3.724.686-6.618,3.237-10.134,4.446-12.717,4.374-25.3,5.574-37.691-1.035a20.171,20.171,0,0,1-5.273-3.615c.043-1.244,1.1-1.351,1.916-1.547,16.389-3.938,29.734-12.948,41.434-24.713a7.274,7.274,0,0,1,2.834-1.064c9.7-2.438,14.8-10.416,12.941-20.214a7.35,7.35,0,0,1-.221-3.023,97.738,97.738,0,0,0,7.151-26.014c.589-4.39.218-8.784.341-13.175a19.585,19.585,0,0,1,.317-4.707C632.792-419.851,641.617-420.659,650.391-417.92Z" transform="translate(-535.332 421.711)" fill="#47af6d"/>
      <path id="Path_31" data-name="Path 31" d="M524.777-350.88c-4.049-9.391-4.118-19.123-2.493-29,2.872-.5,5.478.926,8.3,1.081,13.55.739,25.221-11.171,27.358-22.447a26.793,26.793,0,0,0-1.471-16.253c-.356-.81-.8-1.656-.264-2.578,9.093-3.106,18.3-3.969,27.678-1.388,1.485,1.344,1.493,3.229,1.691,4.977a60.067,60.067,0,0,1-4.1,30.033,3.984,3.984,0,0,1-2.148,2.041c-6.344,3.258-9.95,8.3-10.189,15.552a3.528,3.528,0,0,1-.38,1.293c-8.016,9.2-18.384,14.234-30.092,16.862a40.415,40.415,0,0,1-10.42.787C527.016-349.965,525.746-349.879,524.777-350.88Z" transform="translate(-521.291 422.986)" fill="#e86514"/>
      <path id="Path_32" data-name="Path 32" d="M565.4-220.98c28.474-6.19,52.516-20.2,72.517-41.2A143.168,143.168,0,0,0,658.686-290.1c.444-.778,1-1.492,1.5-2.237.439,10.512,1.114,21.111-1.357,31.413-4.445,18.534-15.9,31.443-33.915,37.569-18.219,6.2-37.121,6.383-56.065,3.614A6.6,6.6,0,0,1,565.4-220.98Z" transform="translate(-538.52 371.957)" fill="#81549a"/>
      <path id="Path_33" data-name="Path 33" d="M527.011-315.494c17.074,1.08,31.355-4.982,43.349-16.89,1.335.509,1.118,1.824,1.417,2.832,2.023,6.816,6.261,11.25,13.406,12.665,1.3.258,2.7.364,3.694,1.436a81.583,81.583,0,0,1-41.551,25.081c-.642.166-1.26.425-1.89.64A51.332,51.332,0,0,1,527.011-315.494Z" transform="translate(-523.525 387.599)" fill="#fbda1b"/>
      <path id="Path_34" data-name="Path 34" d="M556.848-418.213c8.073,14.309.812,33.079-13.989,39.839-6.481,2.961-13.236,3.465-19.939.356,3.228-17.311,11.934-30.641,28.173-38.431A15.363,15.363,0,0,1,556.848-418.213Z" transform="translate(-521.928 421.122)" fill="#e00e48"/>
      <path id="Path_35" data-name="Path 35" d="M618.506-384.956c1.172-4.189,2.555-8.333,3.47-12.578,1.645-7.631,1.181-15.308-.115-22.955,6.454,1,11.7,4.265,16.439,8.787,2.374-3.447,5.235-6.23,9.585-6.9,1.3,4.615.885,9.34.578,13.989a78.269,78.269,0,0,1-7.864,30.4c-1.318-.186-1.739-1.318-2.329-2.243-3.95-6.193-9.544-8.912-16.871-8.014A3.411,3.411,0,0,1,618.506-384.956Z" transform="translate(-559.26 422.011)" fill="#fbda1b"/>
      <path id="Path_36" data-name="Path 36" d="M579.966-233.485a82.464,82.464,0,0,1-29.131,8.75c.34-.826.631-1.677,1.028-2.475,4.3-8.644,6.161-9.513,15.687-7.885C571.66-234.393,575.826-234.012,579.966-233.485Z" transform="translate(-532.83 349.863)" fill="#47af6d"/>
    </g>
    <path id="Path_37" data-name="Path 37" d="M712.024-135.732a3.319,3.319,0,0,1,3.377.611,2.26,2.26,0,0,1,.922,2.678,2.031,2.031,0,0,1-2.009,1.518c-.838-.005-2-.651-2.208.684-.178,1.122,1.117.806,1.725,1.172,1.97,1.185,2.15,3.077.4,4-2.072,1.085-1.776,2.537-1.815,4.15a25.135,25.135,0,0,1-.063,2.7c-.238,1.786-1.3,2.992-3.121,2.914a2.851,2.851,0,0,1-2.97-3.021c-.085-2.683.709-5.64-2.252-7.5-.26-.163-.42-1.087-.256-1.227,2.429-2.084,2.084-5.738,4.442-7.8A3.789,3.789,0,0,1,712.024-135.732Z" transform="translate(-428.136 164.884)" fill="#fff"/>
    <path id="Path_38" data-name="Path 38" d="M1134.326-112.895c-3.2-.057-4.875-1.685-5.124-5.014-.137-1.83-.206-3.371-1.583-5.142-2.625-3.374,2.127-4.144,3.321-6.187.792-1.355,3.064-1.159,4.087.861a3.121,3.121,0,0,0,1.269,1.43c2.99,1.789,2.944,2.729-.041,4.814-1.277.892-1.391,3.534-.079,3.741,2.007.316,3,1.148,2.465,3.081C1138.062-113.213,1136.281-112.787,1134.326-112.895Z" transform="translate(-593.41 162.595)" fill="#fff"/>
    <path id="Path_39" data-name="Path 39" d="M1230.4-112.89c-3.255,0-4.971-1.578-5.263-4.846-.171-1.928-.252-3.569-1.669-5.449-2.506-3.326,2.357-3.97,3.469-6.128.625-1.213,2.861-1.041,3.9.723a3.954,3.954,0,0,0,1.478,1.677c2.739,1.592,2.7,2.993.037,4.72-1.766,1.143-1.663,3.114-.3,3.663,1.864.749,3.18,1.285,2.465,3.419C1233.889-113.237,1232.23-112.791,1230.4-112.89Z" transform="translate(-630.873 162.59)" fill="#fff"/>
    <path id="Path_40" data-name="Path 40" d="M554.4-112.838c-3.012.041-4.848-1.723-5.122-5.382a8.226,8.226,0,0,0-1.447-4.861c-2.536-3.467,2.263-4.045,3.41-6.13.734-1.336,2.664-.752,4.132.87,2.261,2.5,5.954,4.352.229,7.042-.443.208-.87,2.734.781,2.975,2.126.311,2.828,1.253,2.4,3.122C558.309-113.156,556.634-112.816,554.4-112.838Z" transform="translate(-366.981 162.535)" fill="#fff"/>
    <path id="Path_41" data-name="Path 41" d="M607.8-117.587c.707-2.115,1.254-3.651,1.73-5.208.588-1.921,1.778-2.937,3.79-2.272,1.93.638,2.1,2.27,1.513,3.889-.923,2.533-1.982,5.022-3.1,7.479a4.079,4.079,0,0,1-4,2.622,4.175,4.175,0,0,1-3.94-2.722c-1.039-2.49-2.087-4.981-2.987-7.522-.609-1.72-.1-3.185,1.768-3.775,1.905-.6,2.995.4,3.548,2.146C606.634-121.357,607.122-119.758,607.8-117.587Z" transform="translate(-387.864 160.707)" fill="#fff"/>
    <path id="Path_42" data-name="Path 42" d="M1296.744-112.909c-3.434.033-5.3-1.775-5.47-5.421a7.968,7.968,0,0,0-1.485-4.832c-2.492-3.45,2.192-4.085,3.388-6.108.8-1.354,3.1-1.141,4.043.931a2.54,2.54,0,0,0,1.239,1.376c3.081,1.678,3.111,3.064.016,4.7a1.907,1.907,0,0,0-1.081,2.146c.02.742-.2,1.8.953,1.8,2.213.012,2.83,1.249,2.384,3.078C1300.241-113.222,1298.559-112.86,1296.744-112.909Z" transform="translate(-656.772 162.603)" fill="#fff"/>
    <path id="Path_43" data-name="Path 43" d="M919.968-112.837c-3.538.038-5.338-1.779-5.562-5.738-.094-1.653.018-3.125-1.522-4.5-1.508-1.346.323-4.678,3.555-6.362,1.578-.822,3.345-.9,4.011,1.436.185.647.341,1.41,1.2,1.354,1.49-.1,2.05.758,2.121,2.007.081,1.451-.629,2.24-2.167,2.429-1.2.148-1.125,1.258-1.063,2.143.05.725-.12,1.708,1.033,1.8,1.735.143,2.792.886,2.51,2.776C923.83-113.762,922.378-112.863,919.968-112.837Z" transform="translate(-509.635 162.538)" fill="#fff"/>
    <path id="Path_44" data-name="Path 44" d="M892.606-125.148c0,2.259-.014,4.517.009,6.776.02,2.076-1.121,3.316-3.047,3.318s-3.077-1.238-3.073-3.3c.01-4.63-.023-9.261.027-13.891.022-2.031,1.078-3.123,3.2-3.056,1.989.063,2.832,1.208,2.866,3.043C892.636-129.892,892.6-127.52,892.606-125.148Z" transform="translate(-499.537 164.628)" fill="#fff"/>
    <path id="Path_45" data-name="Path 45" d="M1175.46-125.395c0-2.258-.011-4.515.005-6.773.013-1.831.778-3.023,2.766-3.139,2.1-.122,3.276.939,3.313,2.956.085,4.739.078,9.482,0,14.221a2.884,2.884,0,0,1-2.979,3.073,2.878,2.878,0,0,1-3.113-3.228C1175.475-120.654,1175.459-123.025,1175.46-125.395Z" transform="translate(-612.397 164.63)" fill="#fff"/>
    <path id="Path_46" data-name="Path 46" d="M1057.211-118.589c0-.9-.007-1.81,0-2.714a10.155,10.155,0,0,1,.068-1.692c.22-1.221,1.415-2.686,2.105-2.155,2.73,2.1,6.222-2.254,8.4,1.108a2.164,2.164,0,0,1-1.593,3.4c-2.7.389-2.873,2.1-2.809,4.156.025.791.014,1.585-.019,2.375a2.719,2.719,0,0,1-2.68,2.922,2.9,2.9,0,0,1-3.354-2.658,34.536,34.536,0,0,1-.045-4.74Z" transform="translate(-566.214 160.745)" fill="#fff"/>
    <path id="Path_47" data-name="Path 47" d="M751.513-118.79c0-1.347-.1-2.7.02-4.039.135-1.54,1.194-2.867,2.618-2.373a7.238,7.238,0,0,0,5.148-.067,2.082,2.082,0,0,1,2.907,1.52c.35,1.5-.153,2.891-1.757,3.091-2.678.334-2.88,2.048-2.809,4.106.027.785.015,1.572-.014,2.358a2.738,2.738,0,0,1-2.93,2.984,2.922,2.922,0,0,1-3.147-2.869C751.4-115.634,751.518-117.218,751.513-118.79Z" transform="translate(-446.802 160.768)" fill="#fff"/>
    <path id="Path_48" data-name="Path 48" d="M568.731-118.2c0-1.349-.093-2.706.02-4.046.214-2.551,1.534-3.973,4.011-2.535,1.418.823,2.011-.232,2.989-.414,1.458-.272,3.084-.534,3.609,1.4.439,1.619-.078,3.015-1.953,3.233-2.114.246-2.473,1.642-2.55,3.323-.046,1.01,0,2.024-.037,3.035a2.786,2.786,0,0,1-2.591,3.006,2.983,2.983,0,0,1-3.368-2.634,22.187,22.187,0,0,1-.059-4.367Z" transform="translate(-375.415 160.753)" fill="#fff"/>
    <path id="Path_49" data-name="Path 49" d="M1316.751-117.97c0,1.241.017,2.483-.006,3.725-.032,1.854-.935,3.071-2.833,3.106a2.976,2.976,0,0,1-3.166-2.89,59.288,59.288,0,0,1,.015-8.454,2.757,2.757,0,0,1,3.229-2.729c1.929.144,2.756,1.327,2.761,3.179C1316.755-120.679,1316.752-119.324,1316.751-117.97Z" transform="translate(-665.182 160.689)" fill="#fff"/>
    <path id="Path_50" data-name="Path 50" d="M906.114-118.277c0,1.355.017,2.71-.006,4.064-.034,1.863-.961,3.064-2.856,3.076a3,3,0,0,1-3.147-2.916,63.6,63.6,0,0,1-.023-8.121c.1-1.928,1.184-3.185,3.3-3.031,1.933.141,2.736,1.357,2.735,3.2Q906.115-120.139,906.114-118.277Z" transform="translate(-504.798 160.686)" fill="#fff"/>
    <path id="Path_51" data-name="Path 51" d="M632.774-117.916c0,1.24.029,2.481,0,3.721-.044,1.859-.981,3.05-2.87,3.063a2.975,2.975,0,0,1-3.128-2.929,61.236,61.236,0,0,1,.032-8.445,2.79,2.79,0,0,1,3.272-2.692,2.66,2.66,0,0,1,2.682,2.885C632.8-120.848,632.77-119.381,632.774-117.916Z" transform="translate(-398.048 160.683)" fill="#fff"/>
    <path id="Path_52" data-name="Path 52" d="M588.28-118.238c0-1.463-.068-2.929.019-4.386a2.579,2.579,0,0,1,2.61-2.588,2.672,2.672,0,0,1,3.169,2.355,32.179,32.179,0,0,1,.048,9.077,2.81,2.81,0,0,1-3.316,2.635,2.812,2.812,0,0,1-2.562-3.041c-.037-1.35-.007-2.7-.007-4.052Z" transform="translate(-383.044 160.689)" fill="#fff"/>
    <path id="Path_53" data-name="Path 53" d="M1396.86-127.9a25.7,25.7,0,0,1-.038,3.717,2.433,2.433,0,0,1-2.542,2.237c-1.584.07-2.7-.46-3.013-2.058a23.111,23.111,0,0,1-.26-7.407,2.814,2.814,0,0,1,3.228-2.752c1.979.155,2.677,1.444,2.757,3.214.045,1.015.007,2.033.007,3.05Z" transform="translate(-696.513 164.186)" fill="#fff"/>
    <path id="Path_54" data-name="Path 54" d="M590.623-131.623a2.975,2.975,0,0,1-3.134-3.346c.063-2.259,1.609-3.2,3.6-3.116a2.985,2.985,0,0,1,3.161,3.218C594.239-132.642,592.989-131.645,590.623-131.623Z" transform="translate(-382.754 165.714)" fill="#fff"/>
    <path id="Path_55" data-name="Path 55" d="M1314.253-131.612c-2.581-.031-3.85-.972-3.911-3.216-.064-2.329,1.4-3.254,3.4-3.268a3.019,3.019,0,0,1,3.36,3.034A3.087,3.087,0,0,1,1314.253-131.612Z" transform="translate(-665.079 165.716)" fill="#fff"/>
    <path id="Path_56" data-name="Path 56" d="M629.537-131.616c-2.156-.138-3.22-1.281-3.162-3.474.056-2.172,1.506-2.99,3.328-3,2.041-.014,3.51,1.087,3.429,3.293C633.052-132.666,631.707-131.622,629.537-131.616Z" transform="translate(-397.942 165.715)" fill="#fff"/>
    <path id="Path_57" data-name="Path 57" d="M903.171-131.6c-2.422-.132-3.489-1.271-3.457-3.46s1.474-3,3.3-3.031c2.044-.032,3.513,1.076,3.459,3.267A3.083,3.083,0,0,1,903.171-131.6Z" transform="translate(-504.701 165.715)" fill="#fff"/>
    <path id="Path_58" data-name="Path 58" d="M1394.041-105.773c-1.849-.088-3.24-.631-3.3-2.863-.063-2.307,1.154-3.239,3.27-3.253s3.525,1.14,3.447,3.212C1397.387-106.814,1396.083-105.7,1394.041-105.773Z" transform="translate(-696.48 155.481)" fill="#fff"/>
    <path id="Path_59" data-name="Path 59" d="M1257.936-375.192c-.555-16.841-12.109-27.115-29.79-26.492-15.524.547-26.238,12.3-25.7,28.181.543,15.933,12.021,26.449,28.279,25.906C1247.8-348.167,1258.47-358.989,1257.936-375.192Zm-28.989,13.056a9.021,9.021,0,0,1-6.969-3.675c-3.682-4.963-3.421-10.4-1.293-15.775,1.563-3.952,5.615-5.961,10.288-5.714,6.384.337,10.138,5.081,10.123,12.794C1241.08-366.12,1236.643-361.621,1228.948-362.136Z" transform="translate(-622.933 268.676)" fill="#fff"/>
    <path id="Path_60" data-name="Path 60" d="M1155.865-388.422c-4.982-9.543-13.6-13.42-25.568-13.292-19.423-1-31.609,18.565-24.353,38.333,3.795,10.339,14.44,16.342,26.411,15.816,9.334-.41,17.521-3.17,22.585-11.431C1160.752-368.482,1160.97-378.645,1155.865-388.422Zm-15.319,21.7c-2.121,3.8-6.72,5.395-11.6,4.432a10.429,10.429,0,0,1-7.89-8.4,29.045,29.045,0,0,1-.294-3.34c.015-9.989,6.3-15.275,14.312-12.8a9.108,9.108,0,0,1,5.687,4.535A15.793,15.793,0,0,1,1140.546-366.721Z" transform="translate(-584.421 268.692)" fill="#fff"/>
    <path id="Path_61" data-name="Path 61" d="M1062.582-363.77c-1.659-2.056-1.75-3.363.359-5.556,10.448-10.853,5.257-27.825-9.4-31.039-6.3-1.383-12.774-.936-19.182-.955-6.7-.021-9.444,2.734-9.507,9.492-.054,5.761-.011,11.524-.011,17.286h.022c0,6.1-.12,12.2.036,18.3.137,5.32,3.364,8.382,8.294,8.268,4.893-.115,7.688-3.009,7.942-8.271.06-1.24-.116-2.505.064-3.723.177-1.2-.9-2.931.965-3.49,1.964-.588,3.317.251,4.363,2.146a103.1,103.1,0,0,0,6.553,10.66c2.3,3.182,7.1,3.591,10.424,1.327,3.7-2.519,4.453-5.582,2.225-9.637A32.833,32.833,0,0,0,1062.582-363.77Zm-20.567-12.176c-.988-.446-.834-1.218-.842-1.963-.026-2.361.129-4.732-.048-7.08-.207-2.761.5-4.205,3.254-3.238,5.716.259,7.573,1.714,7.666,5.781C1052.159-377.487,1046.569-373.89,1042.015-375.946Z" transform="translate(-553.564 268.545)" fill="#fff"/>
    <path id="Path_62" data-name="Path 62" d="M857.159-222.251c-1.658-2.043-1.845-3.419.326-5.584,5.943-5.925,6.385-13.359,3.879-20.828-2.419-7.209-8.6-9.8-15.623-10.642a133.162,133.162,0,0,0-17.558-.546c-5.873.077-8.609,2.948-8.646,8.918-.035,5.881-.007,11.763,0,17.644,0,6.334-.073,12.669.028,19,.074,4.557,2.9,7.415,7.352,7.765,4.6.363,7.919-2.162,8.616-6.763.268-1.773.013-3.622.235-5.407.144-1.155-.961-2.9,1.185-3.343,1.889-.388,3.118.333,4.087,2.085a120.191,120.191,0,0,0,6.323,10.432c2.426,3.491,7.131,4,10.929,1.524,3.525-2.3,4.2-5.673,1.855-9.727A34.6,34.6,0,0,0,857.159-222.251Zm-15.643-12.421c-.445.071-.888.154-1.335.2-4.418.432-4.46.391-4.463-4.144v-2.021c0-.224-.078-.488.012-.667.9-1.787-2.088-5.185,2.032-5.545,5.633-.492,8.539,1.405,8.941,5.339S845.377-235.287,841.516-234.672Z" transform="translate(-473.375 213.289)" fill="#fff"/>
    <path id="Path_63" data-name="Path 63" d="M1179.29-217.349c-1.653-5.028-3.455-10.007-5.218-15-2.252-6.375-4.431-12.777-6.834-19.095-1.444-3.793-3.628-6.975-8.1-7.88-7.861-1.592-12.648,1.279-15.626,9.768-3.5,9.988-6.886,20.017-10.336,30.024-.624,1.809-1.45,3.562-1.374,5.324-.041,4.063,1.975,6.595,5.754,7.448,4.812,1.087,7.844-.59,9.512-5.7.674-2.067,1.535-2.856,3.754-2.716a93.552,93.552,0,0,0,10.177.013c2-.092,2.951.52,3.582,2.511,1.715,5.408,5.669,7.386,10.7,5.657C1179.35-208.4,1180.941-212.327,1179.29-217.349Zm-21.325-10.045c-1.987-.059-3.978-.015-6.32-.015,1.376-4.62,2.634-8.839,4.162-13.964,1.417,4.634,2.5,8.333,3.688,12C1160-227.818,1159.473-227.349,1157.964-227.394Z" transform="translate(-595.346 213.227)" fill="#fff"/>
    <path id="Path_64" data-name="Path 64" d="M890.486-357.356c-4.031-12.443-8.171-24.859-13.032-37.01a9.872,9.872,0,0,0-7.369-6.407c-7.319-1.545-12.369.934-15.017,8.17-4.147,11.333-7.97,22.785-11.894,34.2a13.785,13.785,0,0,0-.463,2.462c-.021,4.115,1.861,6.693,5.145,7.593,4.1,1.124,8.16.214,8.968-3.2,1.33-5.614,5-5.275,9.088-5.036a26.628,26.628,0,0,0,4.416-.013c2.894-.315,4.615.32,5.551,3.6,1.289,4.512,5.489,6.1,10.148,4.586A6.711,6.711,0,0,0,890.486-357.356Zm-21.259-11.51c-2.109-.021-4.219-.006-6.68-.006,1.335-4.5,2.552-8.613,3.77-12.724h.746c1.136,3.692,2.259,7.389,3.417,11.075C870.856-369.325,870.432-368.855,869.227-368.866Z" transform="translate(-482.437 268.482)" fill="#fff"/>
    <path id="Path_65" data-name="Path 65" d="M682.219-122.83c-.026-1.341-1.146-2.955-2.237-2.327-2.524,1.452-4.635-.158-6.915-.207A5.148,5.148,0,0,0,668-122.105c-1.967,4.085-.492,8.338,3.611,10.549h4.858c-1.7,1.881-3.271,1.463-4.888.655h0c-1.11.687-3.14-.111-3.318,2.092a2.7,2.7,0,0,0,1.333,2.549c4.172,3,11.168.51,12.281-4.438C682.776-114.7,682.3-118.783,682.219-122.83Zm-7.055,6.472c-1.149.012-1.6-.662-1.615-1.7s.076-2.137,1.432-2.23c.966-.066,1.338.678,1.374,1.544C676.4-117.742,676.549-116.657,675.164-116.358Z" transform="translate(-413.862 160.744)" fill="#fff"/>
    <path id="Path_66" data-name="Path 66" d="M818.858-115.67h-.025c0-2.26.07-4.523-.019-6.779-.1-2.513-1.466-3.621-3.8-2.477a2.518,2.518,0,0,1-2.649.048c-2.309-1.088-4.753-1.046-6.55.956-2.436,2.713-2.506,5.964-1.232,9.225.957,2.45,2.826,3.949,5.534,3.515,2.018-.323,2.767-.041,2.663,2.2a2.883,2.883,0,0,0,3.2,3.181c2.083-.062,2.911-1.43,2.882-3.429C818.834-111.375,818.858-113.523,818.858-115.67Zm-7.367-.659c-1.218.022-1.406-.868-1.44-1.808-.04-1.067.155-2.119,1.433-2.243,1.379-.135,1.494,1.032,1.714,1.975C813.1-117.292,812.807-116.353,811.492-116.33Z" transform="translate(-467.228 160.832)" fill="#fff"/>
    <path id="Path_67" data-name="Path 67" d="M1267.667-116.183a3.42,3.42,0,0,1-.571-2.234c-.5-6.011-4.069-8.528-9.906-6.955-1.469.4-2.855,1.095-2.916,2.849-.062,1.814,1.5,1.9,3.289,2.229-4.028,2.174-5.157,4.3-4.055,6.86.985,2.292,3.86,2.924,7.419,1.371a2.1,2.1,0,0,1,2.382.207c1.571,1.021,3.322,1.074,4.618-.362C1269.042-113.451,1268.8-114.926,1267.667-116.183Zm-8.438.62a.842.842,0,0,1-.063-.8c.667-.632,1.4-.5,2.2.035C1260.7-115.217,1259.993-115.142,1259.229-115.562Z" transform="translate(-642.727 160.925)" fill="#fff"/>
    <path id="Path_68" data-name="Path 68" d="M1162.305-115.975c-.875-.946-.527-2.132-.668-3.22-.727-5.646-5.762-8.255-11-5.747-1,.478-1.78.984-1.809,2.16-.034,1.376.82,1.981,2.056,2.2,1.381-.153,2.778-.436,4.052.771l-4.673.284h0c-2.5,1.446-3.646,3.56-2.192,6.194,1.467,2.657,4.115,2.6,6.531,1.572a3.423,3.423,0,0,1,3.6.143,3.276,3.276,0,0,0,4.3-.711A2.524,2.524,0,0,0,1162.305-115.975Zm-7.973.632c-.455,0-.984-.074-1-.631-.02-.773.649-.813,1.2-.83.427-.014.905.014,1.028.632C1155.446-115.508,1154.928-115.347,1154.332-115.343Z" transform="translate(-601.453 160.951)" fill="#fff"/>
    <path id="Path_69" data-name="Path 69" d="M731.583-125.335c-5-.072-7.973,2.575-7.991,7.108-.017,4.4,2.908,7.17,7.61,7.2,4.675.03,7.767-2.708,7.881-6.977C739.2-122.293,736.151-125.27,731.583-125.335Zm-.2,9.1c-1.455.172-1.669-.793-1.694-1.9-.025-1.084.153-2.128,1.492-2.2,1.283-.071,1.67.905,1.865,1.915C733.04-117.226,732.638-116.388,731.38-116.239Z" transform="translate(-435.913 160.733)" fill="#fff"/>
    <path id="Path_70" data-name="Path 70" d="M1212.2-116.047a3.6,3.6,0,0,1-.729-2.531c-.51-5.922-4.371-8.5-10.074-6.751-2.656.814-3.1,2.1-1.648,4.762l4.225-.2.148.6-3.752.637h0c-2.685,1.356-3.644,3.623-2.28,6.178,1.4,2.617,4.1,2.717,6.543,1.6a3.274,3.274,0,0,1,3.609.16,3.138,3.138,0,0,0,4.055-.556A2.535,2.535,0,0,0,1212.2-116.047Zm-7.752.728c-.506-.077-1.2-.035-1.03-.809.059-.275.6-.565.96-.628.477-.084,1.185-.142,1.221.581C1205.63-115.511,1205.007-115.387,1204.447-115.32Z" transform="translate(-620.996 160.94)" fill="#fff"/>
    <path id="Path_71" data-name="Path 71" d="M974.463-125.346c-4.414.07-7.366,2.886-7.419,7.075-.055,4.382,3.141,7.286,7.969,7.242,4.679-.043,7.6-2.863,7.539-7.278C982.492-122.8,979.479-125.426,974.463-125.346Zm1.992,7.406c-.043,1.007-.377,1.753-1.286,1.736-1.529-.124-2.034-.868-2.049-2.049-.014-1.149.375-2.107,1.647-2.083C976.25-120.308,976.508-119.175,976.455-117.94Z" transform="translate(-530.998 160.737)" fill="#fff"/>
    <path id="Path_72" data-name="Path 72" d="M873.488-115.71c-.82-.864-.557-1.9-.639-2.884-.533-6.481-4.8-7.8-10.759-6.331a2.457,2.457,0,0,0-2.175,2.28c-.057,1.4.78,2.006,2.02,2.248l4.009-.015h0l.9.772c-.825.731-1.536.176-2.263-.2l-3.271.494h0c-2.448,1.51-3.621,3.579-2.061,6.254s4.208,2.533,6.578,1.433a3.412,3.412,0,0,1,3.625.267,3.182,3.182,0,0,0,4.048-.658A2.5,2.5,0,0,0,873.488-115.71Zm-8.782.376a.9.9,0,0,1-.2-.809,1.707,1.707,0,0,1,2.375-.084A1.488,1.488,0,0,1,864.706-115.334Z" transform="translate(-488.622 160.784)" fill="#fff"/>
    <path id="Path_73" data-name="Path 73" d="M1080.9-117.091h7.182c2.5-3.28.717-7.572-3.426-8.27-3.764-.634-6.982.692-8.484,3.5a7.6,7.6,0,0,0,.984,8.535c2.042,2.2,7.014,3.1,9.806,1.742,2.091-1.014,2.424-2.5,1.12-4.4C1086.042-116.629,1083.772-114.989,1080.9-117.091Zm3.2-3.282a2.633,2.633,0,0,1-2.74.1C1082.3-121.484,1083.008-121.263,1084.1-120.373Z" transform="translate(-573.279 160.803)" fill="#fff"/>
    <path id="Path_74" data-name="Path 74" d="M1027.584-117.086h6.978c2.552-3.234.805-7.558-3.344-8.277-3.769-.653-7.106.633-8.466,3.5a7.383,7.383,0,0,0,.968,8.533c1.942,2.247,7.033,3.084,9.805,1.723,2.114-1.038,2.362-2.544,1.037-4.4C1032.536-116.664,1030.216-114.922,1027.584-117.086Zm2.9-3.465c-.9.924-1.644.419-2.642.651C1028.56-121.42,1029.314-121.276,1030.485-120.551Z" transform="translate(-552.398 160.808)" fill="#fff"/>
    <path id="Path_75" data-name="Path 75" d="M785.235-117.009h5.528c2.974-1.939,2.684-5.955-.7-7.676a7.953,7.953,0,0,0-8.075.282c-2.456,1.511-3.246,3.944-3.046,6.709.349,4.822,4.192,7.333,9.879,6.5,3.532-.516,4.193-2.274,1.961-5.218C788.885-115.9,787-115.535,785.235-117.009Zm-.053-3.643a1.6,1.6,0,0,1,1.11-.513.748.748,0,0,1,.89.747c-.32.6-.906.4-1.4.4C785.432-120.027,784.771-120.007,785.181-120.651Z" transform="translate(-457.518 160.855)" fill="#fff"/>
    <path id="Path_76" data-name="Path 76" d="M1376.651-116.405c-1.874.453-3.756,1.034-6.263-.583h6.248c2.655-1.71,2.8-5.105.176-7.149-2.355-1.834-5.109-1.768-7.744-.834a6.075,6.075,0,0,0-4.149,5.67c-.207,2.732.235,5.267,2.729,6.86a9.128,9.128,0,0,0,8.776.69C1378.973-112.855,1378.844-114.735,1376.651-116.405Zm-3.884-4.515c.911,1.019-.261.853-.779.926a5.341,5.341,0,0,1-1.192-.147C1371.353-121.234,1372.194-121.562,1372.767-120.921Z" transform="translate(-686.379 160.84)" fill="#fff"/>
  </g>
</svg>
