<svg xmlns="http://www.w3.org/2000/svg" width="165" height="208.684" viewBox="0 0 556.233 208.684">
  <g id="Group_6253" data-name="Group 6253" transform="translate(-210 -3068)">
    <path id="Path_14" data-name="Path 14" d="M1335.708-370.017c3.061-6.921,5.766-13.1,8.532-19.255a63.02,63.02,0,0,1,3.265-6.581c2.725-4.55,6.572-6.065,11.914-4.925,4.209.9,6.783,4,7.21,9.183.267,3.254.137,6.542.141,9.814.012,9.12.084,18.24-.027,27.357-.077,6.362-4.361,9.558-10.249,7.887-3.324-.943-5.086-3.329-5.154-7.433-.1-5.725-.024-11.452-.6-17.4-1.737,4.094-3.429,8.208-5.226,12.276a84.121,84.121,0,0,1-4.5,9.474c-2.873,4.777-7.641,4.734-10.607-.018-3.168-5.072-4.937-10.812-7.356-16.243-.71-1.6-1.381-3.212-2.081-4.845-1.328.325-.742,1.34-.75,1.977-.062,4.793.085,9.59-.072,14.379-.179,5.444-3.091,8.359-7.919,8.279-4.806-.08-7.387-3.063-7.4-8.66q-.03-17.537,0-35.073c.015-6.059,2.2-9.708,6.371-10.874,5.546-1.549,10.256.2,13.128,5.814,3.663,7.157,6.734,14.617,10.06,21.946C1334.726-372.193,1335.059-371.454,1335.708-370.017Z" transform="translate(-600.572 3482.943)"/>
    <path id="Path_15" data-name="Path 15" d="M1005.512-232.456c0-6.606-.023-12.391.006-18.176.03-5.806,3.035-9.061,8.332-9.1,5.023-.036,8.31,3.216,8.36,8.772.111,12.5.085,25.007,0,37.51-.024,3.584-1.235,6.762-4.942,8.138a8.937,8.937,0,0,1-10.279-2.357c-5.467-5.807-9.7-12.575-14.535-18.87-.844-1.1-1.651-2.225-3.113-4.2,0,6.462.066,11.975-.017,17.486-.1,6.447-4.6,9.81-10.832,8.214a7.166,7.166,0,0,1-5.83-7.356q-.2-19.63.01-39.262c.036-3.474,1.6-6.366,5.23-7.528,3.716-1.189,7.043-.443,9.454,2.684,5.064,6.569,9.98,13.25,14.963,19.881C1003.2-235.445,1004.107-234.286,1005.512-232.456Z" transform="translate(-477.733 3430.627)"/>
    <path id="Path_16" data-name="Path 16" d="M1303.518-260.042c5.7-.234,11.25.428,16.158,3.616,3.982,2.586,4.771,6.34,2.551,10.265-1.887,3.335-4.861,3.3-7.943,2.746a36.626,36.626,0,0,1-4.983-1.665,13.3,13.3,0,0,0-5.124-1.033c-1.658.11-3.461.084-3.8,2.25-.31,2,1.356,2.548,2.751,3.09,4.562,1.77,9.334,2.9,13.777,5.09,5.837,2.873,8.524,7.574,8.535,13.744.013,6.62-2.386,12.355-8.837,15.11-10.265,4.384-20.52,3.867-30.432-1.371a10.966,10.966,0,0,1-2.939-2.462,7.2,7.2,0,0,1-1.059-8.479c1.513-3.069,4.366-3.735,7.43-3.1a33.088,33.088,0,0,1,5.917,2.123,17.024,17.024,0,0,0,8.55,1.447,3.254,3.254,0,0,0,3.12-2.412c.433-1.78-.97-2.561-2.273-3.049-3.5-1.307-7.1-2.342-10.577-3.692-9.51-3.692-13.682-10.988-11.584-20.022,1.561-6.723,7.725-11.492,15.843-12.174C1300.231-260.159,1301.879-260.042,1303.518-260.042Z" transform="translate(-591.868 3430.759)"/>
    <path id="Path_17" data-name="Path 17" d="M808.419-362.062q0,1.928,0,3.858c-.009,7.361-2.43,10.48-9.641,11.846a39.8,39.8,0,0,1-19.123-.716c-13.67-4.133-19.905-15.3-18.678-28.895,1.515-16.776,12.1-25.715,29.124-25.68,4.712.009,9.315.1,13.43,2.914a7.916,7.916,0,0,1,3.243,9.469c-1.124,3.137-3.836,4.532-8.04,3.912-3.569-.527-7.051-1.481-10.751-.825-7.195,1.275-10.982,7.234-9.74,15.642A12.094,12.094,0,0,0,791.5-360.154c1.6-.162,2.314-.737,2.241-2.383-.083-1.867-.09-3.745.006-5.611.259-5.033,2.956-7.568,7.806-7.435,4.373.12,6.766,2.74,6.857,7.557C808.449-366.039,808.418-364.051,808.419-362.062Z" transform="translate(-399.448 3483.097)"/>
    <path id="Path_18" data-name="Path 18" d="M902.039-232.253c0-6.2-.04-12.4.013-18.6.05-5.79,2.7-8.732,8.526-8.9,7.26-.211,14.533-.16,21.8-.016,4.506.09,6.994,2.665,6.953,6.669-.04,3.947-2.656,6.344-7.181,6.439-3.514.074-7.035.111-10.546-.018-2.026-.074-2.907.378-2.9,2.67.009,5.086-.128,5.084,5.014,5.088,2.344,0,4.693-.083,7.031.036a6.491,6.491,0,0,1,6.459,6.864,6.329,6.329,0,0,1-6.469,6.435c-3.161.108-6.333.167-9.491.023-3.582-.163-2.346,2.423-2.438,4.116-.094,1.716-.756,3.91,2.468,3.745,3.623-.185,7.265-.1,10.9-.024,4.527.093,7.071,2.444,7.163,6.469.091,3.979-2.48,6.506-7,6.565q-10.545.14-21.094,0c-6.411-.09-9.152-2.933-9.187-9.315C902.012-220.088,902.038-226.17,902.039-232.253Z" transform="translate(-451.652 3430.688)"/>
    <path id="Path_19" data-name="Path 19" d="M1083.389-259.789c5.625,0,11.253-.125,16.874.032,5.853.164,9.145,4.356,7.927,9.848a6.939,6.939,0,0,1-6.292,5.722,18.342,18.342,0,0,1-2.1.177c-7.78.238-7.78.235-7.8,7.931-.02,7.486.106,14.975-.1,22.456-.194,6.911-5,10.381-11.278,8.465-3.5-1.068-5.316-3.549-5.351-7.713-.076-9.24-.166-18.482,0-27.72.052-2.863-.906-3.7-3.6-3.456a29.15,29.15,0,0,1-5.963-.105c-4.664-.55-7.272-3.56-7.123-7.976.153-4.545,3.048-7.485,7.93-7.623C1072.135-259.909,1077.763-259.787,1083.389-259.789Z" transform="translate(-509.534 3430.666)"/>
    <path id="Path_20" data-name="Path 20" d="M941.583-380.817c2.814-5.509,5.467-10.683,8.1-15.865a7.379,7.379,0,0,1,7.675-4.433c6.21.521,8.993,5.833,5.935,11.853-3.225,6.348-6.709,12.577-10.367,18.688a16.163,16.163,0,0,0-2.627,10.248,43.213,43.213,0,0,1,.021,5.258c-.132,5.687-3.2,8.909-8.555,9.01-5.269.1-9.347-3.247-8.826-8.663.852-8.852-2.344-16.087-6.917-23.188a102.8,102.8,0,0,1-6.7-12.29c-1.322-2.842-1.438-6.01,1-8.515s5.477-2.914,8.761-1.972c2.365.678,3.55,2.557,4.589,4.551C936.26-391.169,938.814-386.186,941.583-380.817Z" transform="translate(-457.706 3482.913)"/>
    <path id="Path_21" data-name="Path 21" d="M1220.131-232.527c0-6.19-.164-12.386.048-18.569.218-6.381,4.97-9.766,11.017-8.169,3.739.987,5.725,3.649,5.761,8.135.071,9.11.134,18.223-.028,27.33-.049,2.752.724,3.686,3.511,3.512a64.229,64.229,0,0,1,8.727.262c3.8.284,6.142,2.851,6.558,6.954a7.182,7.182,0,0,1-5.284,8.025c-3.793,1-7.686.325-11.532.449-3.039.1-6.084.056-9.126.013-6.561-.094-9.433-2.775-9.616-9.372C1219.995-220.143,1220.13-226.337,1220.131-232.527Z" transform="translate(-569.241 3430.6)"/>
    <path id="Path_22" data-name="Path 22" d="M1324.232-118.254c0-1.286-.1-2.58.019-3.855.267-2.913,1.679-3.894,4.17-2.565a2.474,2.474,0,0,0,2.772-.113c2.483-1.248,4.606.412,6.878.746,1.923.283,4.3-1.992,6.8-1a4.92,4.92,0,0,1,2.988,4.428c.213,2.2.153,4.435.159,6.655,0,1.9-.9,3.2-2.875,3.273a3.167,3.167,0,0,1-3.329-2.958,33.572,33.572,0,0,1-.118-4.2c-.036-.788.021-1.84-1.155-1.762-1.093.072-1.045,1.07-1.059,1.888-.021,1.286.065,2.58-.054,3.855-.188,2.019-1.313,3.349-3.414,3.182a2.943,2.943,0,0,1-2.9-3.305c.022-1.168.027-2.339-.026-3.506-.041-.884.179-2.123-1.191-2.089-1.258.031-1.2,1.27-1.286,2.145-.121,1.158-.051,2.335-.093,3.5-.071,1.889-.964,3.173-2.931,3.247s-3.006-1.253-3.249-3.02a33.629,33.629,0,0,1-.043-4.549Z" transform="translate(-607.738 3380.922)"/>
    <path id="Path_23" data-name="Path 23" d="M530.291-120.013c-1.371-1.793-3.288-1.719-4.8-2.4-3.485-1.562-4.838-3.736-4.283-7.123.471-2.875,2.846-4.7,6.427-4.793,2.33-.062,4.7-.241,6.841,1.047a2.871,2.871,0,0,1,1.413,3.872c-.681,1.582-2.09,1.663-3.586,1.194-1.378-.432-2.721-1.388-4.5-.385,1.147,1.994,3.206,1.949,4.787,2.533,3.263,1.205,4.6,3.362,4.245,6.745-.355,3.4-2.644,4.882-5.621,5.313-2.772.4-5.624.461-8.217-1.034-1.641-.945-2.985-2.106-2.028-4.2.922-2.02,2.573-1.6,4.2-.956C526.687-119.6,528.2-118.882,530.291-120.013Z" transform="translate(-310.649 3384.278)"/>
    <path id="Path_24" data-name="Path 24" d="M940.327-117.987c.4-1.656.769-3.321,1.207-4.967a2.78,2.78,0,0,1,3.743-2.173,2.52,2.52,0,0,1,1.834,3.569c-1.561,4.629-2.976,9.328-5.289,13.666-1.478,2.77-3.948,3.434-6.858,2.97a2.56,2.56,0,0,1-2.217-2.386,2,2,0,0,1,1.854-2.487c2.778-.292,2.047-1.831,1.389-3.471-1.042-2.6-1.99-5.228-3.025-7.825-.751-1.885-.144-3.32,1.63-3.98,2.062-.766,3.368.335,3.924,2.327.436,1.563.773,3.154,1.155,4.733Z" transform="translate(-462.975 3380.93)"/>
    <path id="Path_25" data-name="Path 25" d="M640.266-118.377c0-1.281-.1-2.571.021-3.84.277-2.865,1.767-3.918,4.178-2.549,1.386.787,2.07.147,3.1-.242,4.223-1.589,7.551.483,7.9,4.963.154,1.968.061,3.956.074,5.935.012,1.9-.839,3.2-2.8,3.33-2.1.146-3.275-1.077-3.482-3.1-.153-1.5-.079-3.022-.131-4.534-.02-.6-.164-1.166-.9-1.268-.93-.129-1.257.5-1.333,1.23-.155,1.5-.22,3.016-.334,4.525-.141,1.873-1.059,3.131-3.016,3.153s-2.965-1.3-3.18-3.073a37.917,37.917,0,0,1-.037-4.532Z" transform="translate(-354.86 3381.013)"/>
    <path id="Path_26" data-name="Path 26" d="M847.257-117.6c0,1.283.078,2.572-.014,3.848-.2,2.808-1.654,3.79-4.165,2.49-1.192-.617-1.812-.255-2.783.156-4.094,1.732-7.12.135-8.135-4.164a22,22,0,0,1-.31-6.617c.133-1.934,1.1-3.378,3.3-3.322s3.051,1.4,3.008,3.47c-.021,1.049-.017,2.1.04,3.149.055,1.008-.133,2.382,1.4,2.3,1.473-.074,1.225-1.451,1.288-2.449.066-1.047.037-2.1.044-3.149.014-2.106,1.031-3.343,3.178-3.328,2.175.014,3.089,1.378,3.141,3.41C847.283-120.4,847.255-118.995,847.257-117.6Z" transform="translate(-425.668 3380.89)"/>
    <path id="Path_27" data-name="Path 27" d="M995.151-118.433c0-1.514-.117-3.04.033-4.54.144-1.433,1.295-2.823,2.53-2.206,2.341,1.17,4.287.117,6.438-.154,3.456-.435,5.647,1.308,6.055,4.762a57.37,57.37,0,0,1,.135,6.641c0,1.929-.96,3.136-2.923,3.213a3.019,3.019,0,0,1-3.341-2.892c-.189-1.495-.065-3.028-.109-4.543-.021-.708-.078-1.45-1.052-1.5-.91-.046-1.254.62-1.329,1.319-.147,1.387-.185,2.787-.216,4.183-.041,1.868-.811,3.25-2.761,3.417-2.145.184-3.214-1.246-3.465-3.16a35.021,35.021,0,0,1-.039-4.541Z" transform="translate(-486.045 3380.961)"/>
    <path id="Path_28" data-name="Path 28" d="M1101.079-118.4c0-1.282-.1-2.574.025-3.843.287-2.837,1.753-3.814,4.231-2.48,1.207.65,1.828.264,2.794-.12,4.58-1.816,7.878.3,8.187,5.237.109,1.742.026,3.495.063,5.243.043,2.019-.707,3.512-2.885,3.608-2.313.1-3.329-1.368-3.462-3.522-.064-1.045.017-2.1-.059-3.144-.063-.845.392-2.128-.985-2.217-1.507-.1-1.406,1.284-1.526,2.268a21.919,21.919,0,0,0-.063,2.794c.014,2.112-.676,3.824-3.063,3.809-2.317-.014-3.124-1.735-3.244-3.789C1101.014-115.837,1101.074-117.122,1101.079-118.4Z" transform="translate(-525.233 3380.995)"/>
    <g id="Group_9" data-name="Group 9" transform="translate(210.404 3068)">
      <path id="Path_29" data-name="Path 29" d="M558.066-264.543c-11.025-3.413-15.16-12.3-10.8-23.271.469-1.182,1.077-2.309,1.621-3.462a5.166,5.166,0,0,1,2.563-1.044,117.852,117.852,0,0,0,23.18-6.8c1.417-.563,2.963-.654,4.384-1.2,6.41-.221,12.854.408,19.188-1.336,8.11-2.232,12.136-9.412,9.638-17.6.215-1.813,1.672-2.766,2.818-3.877A122.054,122.054,0,0,0,645.509-386a124.781,124.781,0,0,0,2.907-25.715c.014-1.706-.447-3.535.84-5.047,6,2.558,6.923,7.882,6.88,13.378-.17,21.335-.623,42.67.054,64a8.276,8.276,0,0,1-.094,1.042c-2,6.654-6.433,11.917-10.4,17.353a148.313,148.313,0,0,1-54.155,45.766,135.243,135.243,0,0,1-28.313,10.338C561.53-264.467,559.832-263.932,558.066-264.543Z" transform="translate(-530.263 420.686)" fill="#38b0e5"/>
      <path id="Path_30" data-name="Path 30" d="M653.577-417.858c.743,30.353-8.044,57.624-26.566,81.735a107.518,107.518,0,0,1-14.855,15.771c-3.851.709-6.844,3.348-10.481,4.6-13.153,4.524-26.169,5.765-38.981-1.07a20.86,20.86,0,0,1-5.453-3.739c.045-1.286,1.136-1.4,1.981-1.6,16.95-4.073,30.751-13.391,42.852-25.558a7.525,7.525,0,0,1,2.931-1.1c10.035-2.521,15.312-10.772,13.383-20.905a7.6,7.6,0,0,1-.228-3.127,101.075,101.075,0,0,0,7.4-26.9c.609-4.541.226-9.085.353-13.626a20.249,20.249,0,0,1,.328-4.868C635.377-419.856,644.5-420.691,653.577-417.858Z" transform="translate(-534.583 421.779)" fill="#47af6d"/>
      <path id="Path_31" data-name="Path 31" d="M524.9-348.413c-4.187-9.713-4.259-19.777-2.578-29.992,2.97-.521,5.666.957,8.589,1.118,14.014.765,26.083-11.553,28.294-23.214a27.713,27.713,0,0,0-1.521-16.809c-.369-.838-.825-1.713-.274-2.666,9.4-3.212,18.925-4.1,28.625-1.435,1.536,1.39,1.544,3.339,1.749,5.147a62.119,62.119,0,0,1-4.241,31.061,4.12,4.12,0,0,1-2.222,2.111c-6.561,3.37-10.29,8.588-10.537,16.084a3.653,3.653,0,0,1-.393,1.338c-8.29,9.515-19.013,14.721-31.121,17.439a41.8,41.8,0,0,1-10.777.814C527.212-347.467,525.9-347.378,524.9-348.413Z" transform="translate(-521.291 422.986)" fill="#e86514"/>
      <path id="Path_32" data-name="Path 32" d="M565.4-218.539c29.449-6.4,54.312-20.892,75-42.611a148.074,148.074,0,0,0,21.477-28.871c.459-.8,1.034-1.544,1.556-2.314.454,10.872,1.151,21.833-1.4,32.488-4.6,19.168-16.448,32.519-35.075,38.854-18.843,6.409-38.391,6.6-57.983,3.738A6.83,6.83,0,0,1,565.4-218.539Z" transform="translate(-537.6 374.681)" fill="#81549a"/>
      <path id="Path_33" data-name="Path 33" d="M527.011-314.916c17.658,1.117,32.427-5.152,44.832-17.468,1.381.526,1.156,1.886,1.465,2.928,2.093,7.049,6.475,11.634,13.864,13.1,1.345.267,2.787.377,3.82,1.485a84.372,84.372,0,0,1-42.972,25.939c-.664.172-1.3.439-1.954.662A53.088,53.088,0,0,1,527.011-314.916Z" transform="translate(-523.406 389.488)" fill="#fbda1b"/>
      <path id="Path_34" data-name="Path 34" d="M558.009-418.213c8.349,14.8.84,34.21-14.467,41.2-6.7,3.062-13.688,3.584-20.621.369,3.339-17.9,12.342-31.689,29.137-39.745A15.881,15.881,0,0,1,558.009-418.213Z" transform="translate(-521.894 421.221)" fill="#e00e48"/>
      <path id="Path_35" data-name="Path 35" d="M618.506-383.74c1.213-4.332,2.643-8.618,3.589-13.008,1.7-7.892,1.221-15.832-.119-23.741,6.675,1.031,12.1,4.411,17,9.087,2.456-3.565,5.414-6.443,9.912-7.133,1.347,4.772.915,9.66.6,14.468a80.948,80.948,0,0,1-8.133,31.435c-1.363-.193-1.8-1.363-2.409-2.319-4.085-6.405-9.87-9.217-17.448-8.288A3.527,3.527,0,0,1,618.506-383.74Z" transform="translate(-557.233 422.063)" fill="#fbda1b"/>
      <path id="Path_36" data-name="Path 36" d="M580.962-233.407a85.283,85.283,0,0,1-30.127,9.05c.352-.854.652-1.734,1.063-2.56,4.446-8.939,6.372-9.839,16.224-8.155C572.373-234.346,576.681-233.952,580.962-233.407Z" transform="translate(-532.214 353.766)" fill="#47af6d"/>
    </g>
    <path id="Path_37" data-name="Path 37" d="M712.309-135.725a3.432,3.432,0,0,1,3.492.632,2.338,2.338,0,0,1,.954,2.77,2.1,2.1,0,0,1-2.077,1.57c-.867-.006-2.064-.674-2.284.708-.184,1.16,1.155.834,1.784,1.212,2.037,1.225,2.224,3.182.409,4.133-2.142,1.122-1.837,2.624-1.878,4.292a26,26,0,0,1-.066,2.792c-.246,1.847-1.342,3.094-3.228,3.014a2.948,2.948,0,0,1-3.072-3.125c-.088-2.775.734-5.833-2.329-7.761-.268-.169-.435-1.124-.265-1.269,2.512-2.155,2.156-5.935,4.594-8.064A3.919,3.919,0,0,1,712.309-135.725Z" transform="translate(-378.32 3384.868)"/>
    <path id="Path_38" data-name="Path 38" d="M1134.582-112.306c-3.311-.059-5.042-1.743-5.3-5.185-.142-1.893-.213-3.486-1.638-5.318-2.715-3.49,2.2-4.285,3.435-6.4.819-1.4,3.169-1.2,4.227.891a3.23,3.23,0,0,0,1.313,1.479c3.092,1.85,3.045,2.822-.042,4.979-1.32.922-1.438,3.655-.082,3.869,2.076.327,3.1,1.187,2.549,3.187C1138.446-112.635,1136.6-112.2,1134.582-112.306Z" transform="translate(-534.772 3382.701)"/>
    <path id="Path_39" data-name="Path 39" d="M1230.662-112.3c-3.366,0-5.142-1.632-5.443-5.012-.177-1.994-.261-3.691-1.726-5.635-2.592-3.439,2.437-4.106,3.587-6.337.646-1.254,2.958-1.076,4.031.748a4.086,4.086,0,0,0,1.529,1.735c2.832,1.646,2.8,3.1.038,4.882-1.826,1.182-1.72,3.221-.309,3.788,1.927.775,3.289,1.329,2.549,3.536C1234.27-112.661,1232.554-112.2,1230.662-112.3Z" transform="translate(-570.235 3382.696)"/>
    <path id="Path_40" data-name="Path 40" d="M554.649-112.253c-3.115.042-5.014-1.782-5.3-5.566a8.51,8.51,0,0,0-1.5-5.028c-2.623-3.586,2.341-4.183,3.526-6.34.759-1.382,2.755-.778,4.273.9,2.338,2.583,6.157,4.5.237,7.283-.458.216-.9,2.827.807,3.077,2.2.322,2.924,1.3,2.479,3.229C558.693-112.581,556.961-112.23,554.649-112.253Z" transform="translate(-320.429 3382.644)"/>
    <path id="Path_41" data-name="Path 41" d="M608.044-117.324c.731-2.187,1.3-3.775,1.79-5.386.608-1.987,1.838-3.038,3.92-2.35,2,.66,2.175,2.348,1.565,4.022-.955,2.62-2.05,5.194-3.2,7.735a4.219,4.219,0,0,1-4.133,2.712,4.318,4.318,0,0,1-4.074-2.815c-1.075-2.575-2.158-5.151-3.089-7.779-.63-1.779-.1-3.294,1.828-3.9,1.97-.624,3.1.416,3.67,2.22C606.841-121.223,607.346-119.57,608.044-117.324Z" transform="translate(-340.197 3380.914)"/>
    <path id="Path_42" data-name="Path 42" d="M1297.006-112.32c-3.551.034-5.482-1.835-5.657-5.606a8.237,8.237,0,0,0-1.536-5c-2.576-3.568,2.268-4.225,3.5-6.317.828-1.4,3.208-1.18,4.181.963a2.629,2.629,0,0,0,1.282,1.423c3.186,1.736,3.218,3.169.016,4.865a1.971,1.971,0,0,0-1.118,2.219c.02.767-.2,1.859.986,1.865,2.289.013,2.926,1.291,2.466,3.183C1300.623-112.643,1298.883-112.269,1297.006-112.32Z" transform="translate(-594.752 3382.708)"/>
    <path id="Path_43" data-name="Path 43" d="M920.228-112.251c-3.659.039-5.521-1.84-5.752-5.934-.1-1.71.019-3.231-1.574-4.652-1.56-1.392.333-4.838,3.677-6.58,1.632-.85,3.459-.932,4.148,1.485.191.669.352,1.458,1.246,1.4,1.541-.1,2.12.784,2.193,2.076.084,1.5-.65,2.316-2.241,2.512-1.242.153-1.164,1.3-1.1,2.217.052.75-.125,1.767,1.069,1.865,1.794.147,2.887.916,2.6,2.871C924.222-113.208,922.721-112.278,920.228-112.251Z" transform="translate(-455.469 3382.647)"/>
    <path id="Path_44" data-name="Path 44" d="M892.815-124.8c0,2.336-.014,4.672.009,7.007.021,2.147-1.16,3.429-3.151,3.431s-3.182-1.281-3.178-3.418c.01-4.789-.023-9.578.028-14.366.023-2.1,1.115-3.23,3.313-3.16,2.057.065,2.929,1.249,2.964,3.147C892.846-129.707,892.811-127.253,892.815-124.8Z" transform="translate(-445.91 3384.625)"/>
    <path id="Path_45" data-name="Path 45" d="M1175.46-125.056c0-2.335-.011-4.67.006-7,.013-1.893.8-3.126,2.861-3.246,2.174-.126,3.388.971,3.426,3.057.088,4.9.081,9.806,0,14.708a2.983,2.983,0,0,1-3.081,3.178,2.976,2.976,0,0,1-3.219-3.339C1175.476-120.153,1175.46-122.6,1175.46-125.056Z" transform="translate(-552.746 3384.628)"/>
    <path id="Path_46" data-name="Path 46" d="M1057.211-118.357c0-.936-.007-1.872,0-2.807a10.48,10.48,0,0,1,.07-1.75c.228-1.263,1.463-2.778,2.177-2.229,2.823,2.171,6.434-2.331,8.689,1.146a2.238,2.238,0,0,1-1.647,3.514c-2.793.4-2.971,2.168-2.906,4.3.026.818.014,1.639-.019,2.456a2.813,2.813,0,0,1-2.772,3.022,3,3,0,0,1-3.469-2.749,35.732,35.732,0,0,1-.047-4.9Z" transform="translate(-509.028 3380.95)"/>
    <path id="Path_47" data-name="Path 47" d="M751.515-118.563c0-1.393-.1-2.795.021-4.177.139-1.593,1.235-2.965,2.708-2.454a7.486,7.486,0,0,0,5.324-.069,2.153,2.153,0,0,1,3.007,1.572c.362,1.547-.158,2.99-1.817,3.2-2.77.345-2.979,2.118-2.905,4.247.028.812.015,1.626-.014,2.439-.07,1.941-1.1,3.069-3.03,3.086a3.021,3.021,0,0,1-3.255-2.967C751.393-115.3,751.52-116.937,751.515-118.563Z" transform="translate(-395.99 3380.971)"/>
    <path id="Path_48" data-name="Path 48" d="M568.732-117.959c0-1.4-.1-2.8.021-4.184.221-2.638,1.586-4.109,4.148-2.622,1.467.852,2.08-.24,3.091-.429,1.508-.281,3.19-.552,3.733,1.448.454,1.674-.081,3.119-2.02,3.344-2.186.254-2.557,1.7-2.637,3.436-.047,1.044,0,2.093-.039,3.139a2.881,2.881,0,0,1-2.679,3.109,3.085,3.085,0,0,1-3.484-2.724,22.949,22.949,0,0,1-.061-4.517Z" transform="translate(-328.413 3380.958)"/>
    <path id="Path_49" data-name="Path 49" d="M1316.961-117.721c0,1.284.017,2.568-.006,3.852-.033,1.918-.967,3.176-2.929,3.212a3.078,3.078,0,0,1-3.274-2.989,61.259,61.259,0,0,1,.015-8.743,2.852,2.852,0,0,1,3.339-2.822c2,.149,2.851,1.373,2.856,3.288C1316.965-120.523,1316.962-119.123,1316.961-117.721Z" transform="translate(-602.713 3380.897)"/>
    <path id="Path_50" data-name="Path 50" d="M906.324-118.039c0,1.4.018,2.8-.007,4.2-.035,1.927-.993,3.169-2.953,3.182a3.1,3.1,0,0,1-3.255-3.016,65.8,65.8,0,0,1-.024-8.4c.1-1.994,1.225-3.294,3.414-3.135,2,.146,2.83,1.4,2.828,3.311Q906.325-119.965,906.324-118.039Z" transform="translate(-450.89 3380.894)"/>
    <path id="Path_51" data-name="Path 51" d="M632.984-117.666c0,1.283.03,2.566,0,3.848-.045,1.922-1.015,3.155-2.968,3.168a3.077,3.077,0,0,1-3.235-3.029,63.291,63.291,0,0,1,.033-8.734A2.886,2.886,0,0,1,630.2-125.2a2.751,2.751,0,0,1,2.774,2.984C633.013-120.7,632.979-119.182,632.984-117.666Z" transform="translate(-349.838 3380.891)"/>
    <path id="Path_52" data-name="Path 52" d="M588.282-118c0-1.513-.07-3.029.02-4.536a2.667,2.667,0,0,1,2.7-2.676,2.763,2.763,0,0,1,3.277,2.435,33.291,33.291,0,0,1,.05,9.387,2.906,2.906,0,0,1-3.429,2.725,2.908,2.908,0,0,1-2.65-3.145c-.038-1.4-.007-2.793-.007-4.19Z" transform="translate(-335.635 3380.897)"/>
    <path id="Path_53" data-name="Path 53" d="M1397.067-127.687a26.615,26.615,0,0,1-.039,3.844,2.517,2.517,0,0,1-2.629,2.314c-1.638.072-2.8-.476-3.116-2.128a23.9,23.9,0,0,1-.269-7.66,2.911,2.911,0,0,1,3.339-2.846c2.046.16,2.769,1.494,2.852,3.323.046,1.049.007,2.1.007,3.154Z" transform="translate(-632.372 3384.207)"/>
    <path id="Path_54" data-name="Path 54" d="M590.731-131.4a3.077,3.077,0,0,1-3.241-3.461c.066-2.336,1.664-3.3,3.725-3.223a3.087,3.087,0,0,1,3.269,3.328C594.47-132.455,593.178-131.424,590.731-131.4Z" transform="translate(-335.361 3385.654)"/>
    <path id="Path_55" data-name="Path 55" d="M1314.387-131.391c-2.669-.032-3.982-1.005-4.045-3.326-.066-2.409,1.446-3.365,3.518-3.38a3.123,3.123,0,0,1,3.475,3.138A3.193,3.193,0,0,1,1314.387-131.391Z" transform="translate(-602.615 3385.656)"/>
    <path id="Path_56" data-name="Path 56" d="M629.645-131.394c-2.23-.142-3.33-1.325-3.271-3.593.058-2.246,1.558-3.092,3.441-3.1,2.111-.014,3.63,1.124,3.546,3.406C633.281-132.481,631.89-131.4,629.645-131.394Z" transform="translate(-349.738 3385.655)"/>
    <path id="Path_57" data-name="Path 57" d="M903.29-131.379c-2.5-.136-3.608-1.315-3.575-3.578.033-2.248,1.525-3.105,3.408-3.135,2.114-.033,3.633,1.113,3.577,3.379A3.188,3.188,0,0,1,903.29-131.379Z" transform="translate(-450.798 3385.654)"/>
    <path id="Path_58" data-name="Path 58" d="M1394.153-105.564c-1.912-.091-3.35-.652-3.414-2.961-.065-2.386,1.194-3.349,3.382-3.364s3.645,1.179,3.565,3.322C1397.614-106.641,1396.265-105.49,1394.153-105.564Z" transform="translate(-632.34 3375.967)"/>
    <path id="Path_59" data-name="Path 59" d="M1259.835-374.285c-.574-17.417-12.523-28.042-30.809-27.4-16.055.566-27.135,12.717-26.575,29.145.562,16.479,12.433,27.354,29.247,26.792C1249.353-346.335,1260.387-357.527,1259.835-374.285Zm-29.98,13.5a9.33,9.33,0,0,1-7.207-3.8c-3.808-5.133-3.538-10.753-1.338-16.314,1.617-4.087,5.807-6.165,10.639-5.909,6.6.349,10.485,5.255,10.469,13.231C1242.4-364.9,1237.814-360.249,1229.855-360.782Z" transform="translate(-562.719 3483.121)"/>
    <path id="Path_60" data-name="Path 60" d="M1157.645-387.966c-5.153-9.869-14.07-13.879-26.442-13.747-20.088-1.037-32.691,19.2-25.187,39.644,3.925,10.693,14.934,16.9,27.314,16.357,9.653-.424,18.12-3.279,23.357-11.822C1162.7-367.344,1162.925-377.854,1157.645-387.966ZM1141.8-365.523c-2.194,3.934-6.95,5.579-12,4.584a10.785,10.785,0,0,1-8.16-8.689,30.035,30.035,0,0,1-.3-3.454c.016-10.331,6.518-15.8,14.8-13.242a9.42,9.42,0,0,1,5.881,4.691A16.334,16.334,0,0,1,1141.8-365.523Z" transform="translate(-526.263 3483.135)"/>
    <path id="Path_61" data-name="Path 61" d="M1063.874-362.483c-1.716-2.127-1.81-3.478.372-5.746,10.8-11.224,5.437-28.776-9.719-32.1-6.521-1.43-13.21-.967-19.838-.988-6.926-.022-9.767,2.828-9.832,9.817-.056,5.958-.012,11.918-.012,17.878h.023c0,6.31-.125,12.622.037,18.928.142,5.5,3.479,8.669,8.577,8.55,5.06-.118,7.95-3.112,8.214-8.553.062-1.283-.12-2.591.066-3.85.183-1.237-.933-3.032,1-3.61,2.031-.608,3.431.26,4.513,2.219a106.79,106.79,0,0,0,6.777,11.025c2.381,3.291,7.34,3.714,10.78,1.373,3.83-2.605,4.606-5.773,2.3-9.967A33.972,33.972,0,0,0,1063.874-362.483ZM1042.6-375.076c-1.022-.461-.863-1.259-.871-2.03-.027-2.442.133-4.894-.05-7.323-.214-2.856.521-4.349,3.365-3.349,5.911.267,7.832,1.773,7.928,5.979C1053.094-376.67,1047.313-372.95,1042.6-375.076Z" transform="translate(-497.053 3482.995)"/>
    <path id="Path_62" data-name="Path 62" d="M858.446-220.963c-1.714-2.113-1.908-3.536.337-5.775,6.147-6.128,6.6-13.816,4.012-21.54-2.5-7.456-8.892-10.139-16.157-11.006a137.7,137.7,0,0,0-18.158-.565c-6.074.079-8.9,3.049-8.942,9.223-.036,6.082-.007,12.165,0,18.248,0,6.55-.076,13.1.029,19.651.076,4.713,2.995,7.669,7.6,8.031,4.762.375,8.19-2.236,8.911-6.995.277-1.834.014-3.746.243-5.592.149-1.194-.994-3,1.226-3.457,1.953-.4,3.224.345,4.227,2.156a124.253,124.253,0,0,0,6.539,10.789c2.509,3.611,7.375,4.138,11.3,1.576,3.646-2.378,4.341-5.867,1.918-10.06A35.8,35.8,0,0,0,858.446-220.963Zm-16.178-12.846c-.459.073-.919.159-1.38.2-4.57.446-4.613.4-4.616-4.286v-2.091c0-.232-.081-.5.013-.69.926-1.849-2.159-5.362,2.1-5.734,5.826-.509,8.832,1.453,9.247,5.522S846.262-234.446,842.269-233.809Z" transform="translate(-421.144 3430.689)"/>
    <path id="Path_63" data-name="Path 63" d="M1180.914-215.9c-1.71-5.2-3.573-10.349-5.4-15.511-2.329-6.593-4.583-13.214-7.068-19.748-1.493-3.923-3.752-7.214-8.374-8.15-8.129-1.647-13.081,1.322-16.16,10.1-3.623,10.33-7.121,20.7-10.689,31.051-.646,1.871-1.5,3.684-1.421,5.506-.042,4.2,2.043,6.82,5.95,7.7,4.977,1.124,8.113-.61,9.837-5.9.7-2.137,1.588-2.954,3.883-2.809a96.757,96.757,0,0,0,10.525.013c2.072-.1,3.052.538,3.7,2.6,1.773,5.593,5.862,7.639,11.067,5.85C1180.977-206.639,1182.622-210.705,1180.914-215.9Zm-22.055-10.389c-2.056-.06-4.114-.015-6.536-.015,1.424-4.778,2.724-9.141,4.3-14.442,1.465,4.793,2.586,8.618,3.814,12.408C1160.964-226.726,1160.42-226.241,1158.86-226.287Z" transform="translate(-536.605 3430.631)"/>
    <path id="Path_64" data-name="Path 64" d="M892.12-355.856c-4.169-12.868-8.45-25.709-13.478-38.276a10.211,10.211,0,0,0-7.621-6.626c-7.57-1.6-12.793.966-15.531,8.45-4.289,11.721-8.242,23.564-12.3,35.368a14.2,14.2,0,0,0-.479,2.546c-.021,4.256,1.924,6.922,5.321,7.853,4.242,1.162,8.439.221,9.275-3.311,1.375-5.806,5.166-5.456,9.4-5.209a27.533,27.533,0,0,0,4.567-.014c2.992-.326,4.773.331,5.741,3.722,1.333,4.666,5.677,6.312,10.5,4.743A6.94,6.94,0,0,0,892.12-355.856Zm-21.986-11.9c-2.181-.022-4.363-.006-6.909-.006l3.9-13.159h.771c1.175,3.818,2.336,7.641,3.533,11.453C871.818-368.234,871.38-367.748,870.134-367.76Z" transform="translate(-429.722 3482.936)"/>
    <path id="Path_65" data-name="Path 65" d="M682.735-122.743c-.027-1.387-1.185-3.056-2.313-2.407-2.611,1.5-4.794-.164-7.152-.214a5.325,5.325,0,0,0-5.243,3.37c-2.035,4.225-.509,8.623,3.735,10.909h5.024c-1.756,1.946-3.383,1.513-5.055.678h0c-1.148.71-3.248-.115-3.432,2.164a2.793,2.793,0,0,0,1.379,2.636c4.314,3.1,11.55.528,12.7-4.59C683.311-114.339,682.817-118.558,682.735-122.743Zm-7.3,6.693c-1.189.012-1.656-.685-1.671-1.754s.079-2.21,1.481-2.307c1-.069,1.384.7,1.421,1.6C676.712-117.482,676.871-116.359,675.439-116.05Z" transform="translate(-364.808 3380.949)"/>
    <path id="Path_66" data-name="Path 66" d="M819.375-115.331h-.026c0-2.337.073-4.678-.019-7.011-.1-2.6-1.516-3.744-3.925-2.561a2.6,2.6,0,0,1-2.739.05c-2.388-1.126-4.916-1.082-6.773.988-2.519,2.806-2.592,6.168-1.274,9.54.99,2.534,2.922,4.084,5.723,3.635,2.087-.334,2.861-.043,2.754,2.277a2.981,2.981,0,0,0,3.306,3.289c2.154-.064,3.011-1.479,2.98-3.546C819.35-110.889,819.375-113.11,819.375-115.331Zm-7.619-.682c-1.259.023-1.454-.9-1.49-1.869-.041-1.1.16-2.191,1.482-2.32,1.426-.139,1.545,1.068,1.772,2.042C813.419-117.009,813.116-116.037,811.756-116.013Z" transform="translate(-415.326 3381.032)"/>
    <path id="Path_67" data-name="Path 67" d="M1268.166-115.853a3.536,3.536,0,0,1-.591-2.311c-.517-6.217-4.208-8.819-10.245-7.193-1.52.409-2.953,1.132-3.016,2.947-.064,1.876,1.546,1.968,3.4,2.306-4.166,2.249-5.333,4.444-4.194,7.1,1.019,2.37,3.992,3.024,7.673,1.418a2.173,2.173,0,0,1,2.463.214c1.625,1.056,3.435,1.111,4.776-.374C1269.588-113.027,1269.335-114.553,1268.166-115.853Zm-8.727.642a.872.872,0,0,1-.065-.827c.69-.654,1.451-.517,2.27.037C1260.963-114.854,1260.229-114.777,1259.439-115.211Z" transform="translate(-581.457 3381.12)"/>
    <path id="Path_68" data-name="Path 68" d="M1162.814-115.635c-.905-.979-.545-2.205-.691-3.33-.751-5.84-5.96-8.537-11.372-5.944-1.032.495-1.841,1.017-1.871,2.234-.035,1.423.848,2.048,2.126,2.279,1.428-.158,2.873-.451,4.19.8l-4.833.294h0c-2.586,1.5-3.771,3.682-2.267,6.406,1.517,2.748,4.255,2.687,6.754,1.626a3.54,3.54,0,0,1,3.718.147,3.389,3.389,0,0,0,4.452-.736A2.61,2.61,0,0,0,1162.814-115.635Zm-8.246.654c-.47,0-1.018-.077-1.033-.652-.021-.8.671-.841,1.245-.858.442-.014.936.015,1.063.654C1155.72-115.152,1155.185-114.986,1154.568-114.982Z" transform="translate(-542.386 3381.146)"/>
    <path id="Path_69" data-name="Path 69" d="M731.856-125.335c-5.168-.074-8.246,2.664-8.264,7.352-.017,4.553,3.007,7.415,7.87,7.446,4.834.032,8.033-2.8,8.15-7.216C739.73-122.189,736.581-125.267,731.856-125.335Zm-.21,9.407c-1.5.178-1.726-.82-1.752-1.962-.026-1.121.158-2.2,1.543-2.277,1.327-.073,1.727.936,1.929,1.981C733.364-116.948,732.948-116.082,731.646-115.928Z" transform="translate(-385.682 3380.939)"/>
    <path id="Path_70" data-name="Path 70" d="M1212.7-115.712a3.727,3.727,0,0,1-.753-2.618c-.527-6.125-4.52-8.79-10.419-6.982-2.747.842-3.208,2.176-1.7,4.925l4.37-.205c.051.2.1.41.153.616l-3.881.659h0c-2.776,1.4-3.769,3.747-2.358,6.389,1.445,2.706,4.236,2.81,6.767,1.658a3.385,3.385,0,0,1,3.732.165,3.246,3.246,0,0,0,4.194-.575A2.621,2.621,0,0,0,1212.7-115.712Zm-8.017.753c-.524-.08-1.236-.037-1.065-.836.061-.284.621-.584.993-.65.493-.087,1.226-.147,1.263.6C1205.909-115.156,1205.265-115.028,1204.685-114.959Z" transform="translate(-560.886 3381.134)"/>
    <path id="Path_71" data-name="Path 71" d="M974.717-125.346c-4.564.072-7.618,2.984-7.673,7.318-.057,4.532,3.249,7.536,8.242,7.49,4.839-.045,7.859-2.961,7.8-7.527C983.02-122.717,979.9-125.429,974.717-125.346Zm2.061,7.66c-.045,1.042-.39,1.813-1.33,1.8-1.582-.129-2.1-.9-2.119-2.12-.015-1.188.388-2.179,1.7-2.154C976.566-120.136,976.832-118.964,976.777-117.686Z" transform="translate(-475.691 3380.942)"/>
    <path id="Path_72" data-name="Path 72" d="M874-115.376c-.848-.893-.577-1.961-.66-2.982-.552-6.7-4.963-8.068-11.127-6.548a2.541,2.541,0,0,0-2.25,2.358c-.059,1.446.807,2.075,2.089,2.325l4.146-.016h0l.935.8c-.854.756-1.589.182-2.34-.208l-3.383.511h0c-2.531,1.562-3.745,3.7-2.132,6.468s4.352,2.619,6.8,1.482a3.529,3.529,0,0,1,3.75.276,3.291,3.291,0,0,0,4.187-.681A2.59,2.59,0,0,0,874-115.376Zm-9.083.389a.937.937,0,0,1-.2-.836,1.766,1.766,0,0,1,2.457-.087A1.539,1.539,0,0,1,864.916-114.987Z" transform="translate(-435.578 3380.987)"/>
    <path id="Path_73" data-name="Path 73" d="M1081.095-116.8h7.428c2.581-3.392.742-7.831-3.543-8.553-3.893-.656-7.22.715-8.775,3.616a7.86,7.86,0,0,0,1.018,8.827c2.113,2.274,7.255,3.2,10.142,1.8,2.162-1.049,2.507-2.59,1.158-4.546C1086.41-116.325,1084.063-114.628,1081.095-116.8Zm3.309-3.395a2.722,2.722,0,0,1-2.833.1C1082.539-121.346,1083.271-121.118,1084.4-120.2Z" transform="translate(-515.716 3381.005)"/>
    <path id="Path_74" data-name="Path 74" d="M1027.78-116.8H1035c2.639-3.344.833-7.817-3.458-8.56-3.9-.675-7.349.654-8.755,3.616a7.635,7.635,0,0,0,1,8.825c2.008,2.324,7.274,3.19,10.141,1.782,2.186-1.073,2.443-2.631,1.073-4.554C1032.9-116.36,1030.5-114.559,1027.78-116.8Zm3-3.584c-.932.956-1.7.433-2.733.673C1028.79-121.28,1029.57-121.13,1030.781-120.381Z" transform="translate(-495.949 3381.009)"/>
    <path id="Path_75" data-name="Path 75" d="M785.451-116.713h5.717c3.076-2,2.776-6.158-.728-7.939a8.225,8.225,0,0,0-8.351.292c-2.54,1.563-3.357,4.079-3.15,6.939.361,4.987,4.335,7.583,10.217,6.725,3.653-.533,4.337-2.352,2.028-5.4C789.226-115.568,787.28-115.189,785.451-116.713Zm-.055-3.767a1.653,1.653,0,0,1,1.148-.53.773.773,0,0,1,.92.773c-.331.618-.937.418-1.445.409C785.655-119.835,784.972-119.813,785.4-120.48Z" transform="translate(-406.134 3381.054)"/>
    <path id="Path_76" data-name="Path 76" d="M1377.053-116.09c-1.937.468-3.884,1.07-6.477-.6h6.461c2.747-1.769,2.895-5.28.183-7.393-2.435-1.9-5.284-1.828-8.009-.862a6.283,6.283,0,0,0-4.291,5.864c-.214,2.826.244,5.447,2.822,7.094a9.44,9.44,0,0,0,9.077.713C1379.456-112.419,1379.323-114.363,1377.053-116.09Zm-4.016-4.67c.942,1.054-.27.882-.806.958a5.519,5.519,0,0,1-1.232-.152C1371.574-121.084,1372.444-121.424,1373.037-120.76Z" transform="translate(-622.779 3381.04)"/>
  </g>
</svg>
